<svg width="1681" height="884" viewBox="0 0 1681 884" fill="none" xmlns="http://www.w3.org/2000/svg">
<path d="M33.8055 243.351C30.6075 243.351 28.1635 242.142 26.4735 239.724C24.8095 237.28 23.9775 233.783 23.9775 229.233C23.9775 226.139 24.3545 223.552 25.1085 221.472C25.8625 219.392 26.9675 217.819 28.4235 216.753C29.8795 215.687 31.6735 215.154 33.8055 215.154C37.0295 215.154 39.4735 216.35 41.1375 218.742C42.8015 221.108 43.6335 224.592 43.6335 229.194C43.6335 232.236 43.2565 234.81 42.5025 236.916C41.7485 239.022 40.6435 240.621 39.1875 241.713C37.7315 242.805 35.9375 243.351 33.8055 243.351ZM33.8055 239.997C35.8075 239.997 37.2765 239.126 38.2125 237.384C39.1745 235.616 39.6555 232.886 39.6555 229.194C39.6555 225.476 39.1745 222.772 38.2125 221.082C37.2765 219.366 35.8075 218.508 33.8055 218.508C31.8295 218.508 30.3605 219.366 29.3985 221.082C28.4365 222.772 27.9555 225.476 27.9555 229.194C27.9555 232.886 28.4365 235.616 29.3985 237.384C30.3605 239.126 31.8295 239.997 33.8055 239.997ZM49.5852 234.186C49.1172 234.186 48.7272 234.03 48.4152 233.718C48.1032 233.406 47.9472 233.029 47.9472 232.587C47.9472 232.119 48.1032 231.742 48.4152 231.456C48.7272 231.144 49.1172 230.988 49.5852 230.988H58.1652C58.6072 230.988 58.9842 231.144 59.2962 231.456C59.6082 231.742 59.7642 232.119 59.7642 232.587C59.7642 233.029 59.6082 233.406 59.2962 233.718C58.9842 234.03 58.6072 234.186 58.1652 234.186H49.5852Z" fill="#2D2D2D"/>
<path d="M407.7 156.351C404.502 156.351 402.058 155.142 400.368 152.724C398.704 150.28 397.872 146.783 397.872 142.233C397.872 139.139 398.249 136.552 399.003 134.472C399.757 132.392 400.862 130.819 402.318 129.753C403.774 128.687 405.568 128.154 407.7 128.154C410.924 128.154 413.368 129.35 415.032 131.742C416.696 134.108 417.528 137.592 417.528 142.194C417.528 145.236 417.151 147.81 416.397 149.916C415.643 152.022 414.538 153.621 413.082 154.713C411.626 155.805 409.832 156.351 407.7 156.351ZM407.7 152.997C409.702 152.997 411.171 152.126 412.107 150.384C413.069 148.616 413.55 145.886 413.55 142.194C413.55 138.476 413.069 135.772 412.107 134.082C411.171 132.366 409.702 131.508 407.7 131.508C405.724 131.508 404.255 132.366 403.293 134.082C402.331 135.772 401.85 138.476 401.85 142.194C401.85 145.886 402.331 148.616 403.293 150.384C404.255 152.126 405.724 152.997 407.7 152.997ZM423.48 147.186C423.012 147.186 422.622 147.03 422.31 146.718C421.998 146.406 421.842 146.029 421.842 145.587C421.842 145.119 421.998 144.742 422.31 144.456C422.622 144.144 423.012 143.988 423.48 143.988H432.06C432.502 143.988 432.879 144.144 433.191 144.456C433.503 144.742 433.659 145.119 433.659 145.587C433.659 146.029 433.503 146.406 433.191 146.718C432.879 147.03 432.502 147.186 432.06 147.186H423.48Z" fill="#2D2D2D"/>
<path d="M576.7 156.351C573.502 156.351 571.058 155.142 569.368 152.724C567.704 150.28 566.872 146.783 566.872 142.233C566.872 139.139 567.249 136.552 568.003 134.472C568.757 132.392 569.862 130.819 571.318 129.753C572.774 128.687 574.568 128.154 576.7 128.154C579.924 128.154 582.368 129.35 584.032 131.742C585.696 134.108 586.528 137.592 586.528 142.194C586.528 145.236 586.151 147.81 585.397 149.916C584.643 152.022 583.538 153.621 582.082 154.713C580.626 155.805 578.832 156.351 576.7 156.351ZM576.7 152.997C578.702 152.997 580.171 152.126 581.107 150.384C582.069 148.616 582.55 145.886 582.55 142.194C582.55 138.476 582.069 135.772 581.107 134.082C580.171 132.366 578.702 131.508 576.7 131.508C574.724 131.508 573.255 132.366 572.293 134.082C571.331 135.772 570.85 138.476 570.85 142.194C570.85 145.886 571.331 148.616 572.293 150.384C573.255 152.126 574.724 152.997 576.7 152.997ZM600.085 154.713C599.591 154.713 599.214 154.583 598.954 154.323C598.72 154.037 598.603 153.66 598.603 153.192V146.25H591.778C591.31 146.25 590.946 146.133 590.686 145.899C590.426 145.639 590.296 145.275 590.296 144.807C590.296 144.339 590.426 143.988 590.686 143.754C590.946 143.494 591.31 143.364 591.778 143.364H598.603V136.617C598.603 136.149 598.72 135.785 598.954 135.525C599.214 135.265 599.604 135.135 600.124 135.135C600.592 135.135 600.943 135.265 601.177 135.525C601.437 135.785 601.567 136.149 601.567 136.617V143.364H608.392C608.886 143.364 609.25 143.494 609.484 143.754C609.744 143.988 609.874 144.339 609.874 144.807C609.874 145.275 609.744 145.639 609.484 145.899C609.25 146.133 608.886 146.25 608.392 146.25H601.567V153.192C601.567 153.66 601.437 154.037 601.177 154.323C600.943 154.583 600.579 154.713 600.085 154.713Z" fill="#2D2D2D"/>
<path d="M733.042 156.273C732.522 156.273 732.106 156.156 731.794 155.922C731.482 155.688 731.3 155.376 731.248 154.986C731.196 154.596 731.274 154.154 731.482 153.66L742.051 129.948C742.311 129.324 742.636 128.882 743.026 128.622C743.442 128.362 743.897 128.232 744.391 128.232C744.859 128.232 745.288 128.362 745.678 128.622C746.094 128.882 746.432 129.324 746.692 129.948L757.261 153.66C757.495 154.154 757.586 154.609 757.534 155.025C757.482 155.415 757.313 155.727 757.027 155.961C756.741 156.169 756.338 156.273 755.818 156.273C755.246 156.273 754.791 156.13 754.453 155.844C754.115 155.558 753.816 155.116 753.556 154.518L750.826 148.2L752.659 149.292H736.045L737.839 148.2L735.148 154.518C734.888 155.142 734.602 155.597 734.29 155.883C733.978 156.143 733.562 156.273 733.042 156.273ZM744.313 132.99L738.424 146.952L737.449 146.016H751.216L750.319 146.952L744.391 132.99H744.313ZM762.088 147.186C761.62 147.186 761.23 147.03 760.918 146.718C760.606 146.406 760.45 146.029 760.45 145.587C760.45 145.119 760.606 144.742 760.918 144.456C761.23 144.144 761.62 143.988 762.088 143.988H770.668C771.11 143.988 771.487 144.144 771.799 144.456C772.111 144.742 772.267 145.119 772.267 145.587C772.267 146.029 772.111 146.406 771.799 146.718C771.487 147.03 771.11 147.186 770.668 147.186H762.088Z" fill="#2D2D2D"/>
<path d="M909.042 156.273C908.522 156.273 908.106 156.156 907.794 155.922C907.482 155.688 907.3 155.376 907.248 154.986C907.196 154.596 907.274 154.154 907.482 153.66L918.051 129.948C918.311 129.324 918.636 128.882 919.026 128.622C919.442 128.362 919.897 128.232 920.391 128.232C920.859 128.232 921.288 128.362 921.678 128.622C922.094 128.882 922.432 129.324 922.692 129.948L933.261 153.66C933.495 154.154 933.586 154.609 933.534 155.025C933.482 155.415 933.313 155.727 933.027 155.961C932.741 156.169 932.338 156.273 931.818 156.273C931.246 156.273 930.791 156.13 930.453 155.844C930.115 155.558 929.816 155.116 929.556 154.518L926.826 148.2L928.659 149.292H912.045L913.839 148.2L911.148 154.518C910.888 155.142 910.602 155.597 910.29 155.883C909.978 156.143 909.562 156.273 909.042 156.273ZM920.313 132.99L914.424 146.952L913.449 146.016H927.216L926.319 146.952L920.391 132.99H920.313ZM946.417 154.713C945.923 154.713 945.546 154.583 945.286 154.323C945.052 154.037 944.935 153.66 944.935 153.192V146.25H938.11C937.642 146.25 937.278 146.133 937.018 145.899C936.758 145.639 936.628 145.275 936.628 144.807C936.628 144.339 936.758 143.988 937.018 143.754C937.278 143.494 937.642 143.364 938.11 143.364H944.935V136.617C944.935 136.149 945.052 135.785 945.286 135.525C945.546 135.265 945.936 135.135 946.456 135.135C946.924 135.135 947.275 135.265 947.509 135.525C947.769 135.785 947.899 136.149 947.899 136.617V143.364H954.724C955.218 143.364 955.582 143.494 955.816 143.754C956.076 143.988 956.206 144.339 956.206 144.807C956.206 145.275 956.076 145.639 955.816 145.899C955.582 146.133 955.218 146.25 954.724 146.25H947.899V153.192C947.899 153.66 947.769 154.037 947.509 154.323C947.275 154.583 946.911 154.713 946.417 154.713Z" fill="#2D2D2D"/>
<path d="M1072.38 156C1071.68 156 1071.13 155.818 1070.74 155.454C1070.38 155.064 1070.2 154.518 1070.2 153.816V130.689C1070.2 129.987 1070.38 129.454 1070.74 129.09C1071.13 128.7 1071.68 128.505 1072.38 128.505H1081.66C1083.56 128.505 1085.17 128.791 1086.5 129.363C1087.85 129.935 1088.88 130.754 1089.58 131.82C1090.31 132.886 1090.67 134.173 1090.67 135.681C1090.67 137.345 1090.18 138.749 1089.19 139.893C1088.2 141.037 1086.86 141.804 1085.17 142.194V141.609C1087.1 141.869 1088.61 142.597 1089.7 143.793C1090.79 144.963 1091.34 146.497 1091.34 148.395C1091.34 150.839 1090.53 152.724 1088.92 154.05C1087.31 155.35 1085.04 156 1082.13 156H1072.38ZM1074.1 152.88H1081.66C1083.61 152.88 1085.06 152.503 1085.99 151.749C1086.93 150.969 1087.4 149.799 1087.4 148.239C1087.4 146.679 1086.93 145.522 1085.99 144.768C1085.06 144.014 1083.61 143.637 1081.66 143.637H1074.1V152.88ZM1074.1 140.517H1081.04C1082.91 140.517 1084.33 140.14 1085.29 139.386C1086.25 138.632 1086.73 137.527 1086.73 136.071C1086.73 134.615 1086.25 133.51 1085.29 132.756C1084.33 132.002 1082.91 131.625 1081.04 131.625H1074.1V140.517ZM1097.72 147.186C1097.25 147.186 1096.86 147.03 1096.55 146.718C1096.24 146.406 1096.08 146.029 1096.08 145.587C1096.08 145.119 1096.24 144.742 1096.55 144.456C1096.86 144.144 1097.25 143.988 1097.72 143.988H1106.3C1106.74 143.988 1107.12 144.144 1107.43 144.456C1107.74 144.742 1107.9 145.119 1107.9 145.587C1107.9 146.029 1107.74 146.406 1107.43 146.718C1107.12 147.03 1106.74 147.186 1106.3 147.186H1097.72Z" fill="#2D2D2D"/>
<path d="M1253.38 156C1252.68 156 1252.13 155.818 1251.74 155.454C1251.38 155.064 1251.2 154.518 1251.2 153.816V130.689C1251.2 129.987 1251.38 129.454 1251.74 129.09C1252.13 128.7 1252.68 128.505 1253.38 128.505H1262.66C1264.56 128.505 1266.17 128.791 1267.5 129.363C1268.85 129.935 1269.88 130.754 1270.58 131.82C1271.31 132.886 1271.67 134.173 1271.67 135.681C1271.67 137.345 1271.18 138.749 1270.19 139.893C1269.2 141.037 1267.86 141.804 1266.17 142.194V141.609C1268.1 141.869 1269.61 142.597 1270.7 143.793C1271.79 144.963 1272.34 146.497 1272.34 148.395C1272.34 150.839 1271.53 152.724 1269.92 154.05C1268.31 155.35 1266.04 156 1263.13 156H1253.38ZM1255.1 152.88H1262.66C1264.61 152.88 1266.06 152.503 1266.99 151.749C1267.93 150.969 1268.4 149.799 1268.4 148.239C1268.4 146.679 1267.93 145.522 1266.99 144.768C1266.06 144.014 1264.61 143.637 1262.66 143.637H1255.1V152.88ZM1255.1 140.517H1262.04C1263.91 140.517 1265.33 140.14 1266.29 139.386C1267.25 138.632 1267.73 137.527 1267.73 136.071C1267.73 134.615 1267.25 133.51 1266.29 132.756C1265.33 132.002 1263.91 131.625 1262.04 131.625H1255.1V140.517ZM1286.28 154.713C1285.79 154.713 1285.41 154.583 1285.15 154.323C1284.92 154.037 1284.8 153.66 1284.8 153.192V146.25H1277.98C1277.51 146.25 1277.14 146.133 1276.88 145.899C1276.62 145.639 1276.49 145.275 1276.49 144.807C1276.49 144.339 1276.62 143.988 1276.88 143.754C1277.14 143.494 1277.51 143.364 1277.98 143.364H1284.8V136.617C1284.8 136.149 1284.92 135.785 1285.15 135.525C1285.41 135.265 1285.8 135.135 1286.32 135.135C1286.79 135.135 1287.14 135.265 1287.38 135.525C1287.64 135.785 1287.77 136.149 1287.77 136.617V143.364H1294.59C1295.08 143.364 1295.45 143.494 1295.68 143.754C1295.94 143.988 1296.07 144.339 1296.07 144.807C1296.07 145.275 1295.94 145.639 1295.68 145.899C1295.45 146.133 1295.08 146.25 1294.59 146.25H1287.77V153.192C1287.77 153.66 1287.64 154.037 1287.38 154.323C1287.14 154.583 1286.78 154.713 1286.28 154.713Z" fill="#2D2D2D"/>
<path d="M1396.04 156.273C1395.52 156.273 1395.11 156.156 1394.79 155.922C1394.48 155.688 1394.3 155.376 1394.25 154.986C1394.2 154.596 1394.27 154.154 1394.48 153.66L1405.05 129.948C1405.31 129.324 1405.64 128.882 1406.03 128.622C1406.44 128.362 1406.9 128.232 1407.39 128.232C1407.86 128.232 1408.29 128.362 1408.68 128.622C1409.09 128.882 1409.43 129.324 1409.69 129.948L1420.26 153.66C1420.5 154.154 1420.59 154.609 1420.53 155.025C1420.48 155.415 1420.31 155.727 1420.03 155.961C1419.74 156.169 1419.34 156.273 1418.82 156.273C1418.25 156.273 1417.79 156.13 1417.45 155.844C1417.12 155.558 1416.82 155.116 1416.56 154.518L1413.83 148.2L1415.66 149.292H1399.05L1400.84 148.2L1398.15 154.518C1397.89 155.142 1397.6 155.597 1397.29 155.883C1396.98 156.143 1396.56 156.273 1396.04 156.273ZM1407.31 132.99L1401.42 146.952L1400.45 146.016H1414.22L1413.32 146.952L1407.39 132.99H1407.31ZM1427.1 156C1426.4 156 1425.85 155.818 1425.46 155.454C1425.1 155.064 1424.91 154.518 1424.91 153.816V130.689C1424.91 129.987 1425.1 129.454 1425.46 129.09C1425.85 128.7 1426.4 128.505 1427.1 128.505H1436.38C1438.28 128.505 1439.89 128.791 1441.22 129.363C1442.57 129.935 1443.6 130.754 1444.3 131.82C1445.03 132.886 1445.39 134.173 1445.39 135.681C1445.39 137.345 1444.9 138.749 1443.91 139.893C1442.92 141.037 1441.58 141.804 1439.89 142.194V141.609C1441.81 141.869 1443.32 142.597 1444.41 143.793C1445.51 144.963 1446.05 146.497 1446.05 148.395C1446.05 150.839 1445.25 152.724 1443.63 154.05C1442.02 155.35 1439.76 156 1436.85 156H1427.1ZM1428.81 152.88H1436.38C1438.33 152.88 1439.77 152.503 1440.71 151.749C1441.65 150.969 1442.11 149.799 1442.11 148.239C1442.11 146.679 1441.65 145.522 1440.71 144.768C1439.77 144.014 1438.33 143.637 1436.38 143.637H1428.81V152.88ZM1428.81 140.517H1435.76C1437.63 140.517 1439.05 140.14 1440.01 139.386C1440.97 138.632 1441.45 137.527 1441.45 136.071C1441.45 134.615 1440.97 133.51 1440.01 132.756C1439.05 132.002 1437.63 131.625 1435.76 131.625H1428.81V140.517ZM1452.43 147.186C1451.97 147.186 1451.58 147.03 1451.26 146.718C1450.95 146.406 1450.8 146.029 1450.8 145.587C1450.8 145.119 1450.95 144.742 1451.26 144.456C1451.58 144.144 1451.97 143.988 1452.43 143.988H1461.01C1461.46 143.988 1461.83 144.144 1462.14 144.456C1462.46 144.742 1462.61 145.119 1462.61 145.587C1462.61 146.029 1462.46 146.406 1462.14 146.718C1461.83 147.03 1461.46 147.186 1461.01 147.186H1452.43Z" fill="#2D2D2D"/>
<path d="M1571.04 156.273C1570.52 156.273 1570.11 156.156 1569.79 155.922C1569.48 155.688 1569.3 155.376 1569.25 154.986C1569.2 154.596 1569.27 154.154 1569.48 153.66L1580.05 129.948C1580.31 129.324 1580.64 128.882 1581.03 128.622C1581.44 128.362 1581.9 128.232 1582.39 128.232C1582.86 128.232 1583.29 128.362 1583.68 128.622C1584.09 128.882 1584.43 129.324 1584.69 129.948L1595.26 153.66C1595.5 154.154 1595.59 154.609 1595.53 155.025C1595.48 155.415 1595.31 155.727 1595.03 155.961C1594.74 156.169 1594.34 156.273 1593.82 156.273C1593.25 156.273 1592.79 156.13 1592.45 155.844C1592.12 155.558 1591.82 155.116 1591.56 154.518L1588.83 148.2L1590.66 149.292H1574.05L1575.84 148.2L1573.15 154.518C1572.89 155.142 1572.6 155.597 1572.29 155.883C1571.98 156.143 1571.56 156.273 1571.04 156.273ZM1582.31 132.99L1576.42 146.952L1575.45 146.016H1589.22L1588.32 146.952L1582.39 132.99H1582.31ZM1602.1 156C1601.4 156 1600.85 155.818 1600.46 155.454C1600.1 155.064 1599.91 154.518 1599.91 153.816V130.689C1599.91 129.987 1600.1 129.454 1600.46 129.09C1600.85 128.7 1601.4 128.505 1602.1 128.505H1611.38C1613.28 128.505 1614.89 128.791 1616.22 129.363C1617.57 129.935 1618.6 130.754 1619.3 131.82C1620.03 132.886 1620.39 134.173 1620.39 135.681C1620.39 137.345 1619.9 138.749 1618.91 139.893C1617.92 141.037 1616.58 141.804 1614.89 142.194V141.609C1616.81 141.869 1618.32 142.597 1619.41 143.793C1620.51 144.963 1621.05 146.497 1621.05 148.395C1621.05 150.839 1620.25 152.724 1618.63 154.05C1617.02 155.35 1614.76 156 1611.85 156H1602.1ZM1603.81 152.88H1611.38C1613.33 152.88 1614.77 152.503 1615.71 151.749C1616.65 150.969 1617.11 149.799 1617.11 148.239C1617.11 146.679 1616.65 145.522 1615.71 144.768C1614.77 144.014 1613.33 143.637 1611.38 143.637H1603.81V152.88ZM1603.81 140.517H1610.76C1612.63 140.517 1614.05 140.14 1615.01 139.386C1615.97 138.632 1616.45 137.527 1616.45 136.071C1616.45 134.615 1615.97 133.51 1615.01 132.756C1614.05 132.002 1612.63 131.625 1610.76 131.625H1603.81V140.517ZM1635 154.713C1634.51 154.713 1634.13 154.583 1633.87 154.323C1633.64 154.037 1633.52 153.66 1633.52 153.192V146.25H1626.69C1626.23 146.25 1625.86 146.133 1625.6 145.899C1625.34 145.639 1625.21 145.275 1625.21 144.807C1625.21 144.339 1625.34 143.988 1625.6 143.754C1625.86 143.494 1626.23 143.364 1626.69 143.364H1633.52V136.617C1633.52 136.149 1633.64 135.785 1633.87 135.525C1634.13 135.265 1634.52 135.135 1635.04 135.135C1635.51 135.135 1635.86 135.265 1636.09 135.525C1636.35 135.785 1636.48 136.149 1636.48 136.617V143.364H1643.31C1643.8 143.364 1644.17 143.494 1644.4 143.754C1644.66 143.988 1644.79 144.339 1644.79 144.807C1644.79 145.275 1644.66 145.639 1644.4 145.899C1644.17 146.133 1643.8 146.25 1643.31 146.25H1636.48V153.192C1636.48 153.66 1636.35 154.037 1636.09 154.323C1635.86 154.583 1635.49 154.713 1635 154.713Z" fill="#2D2D2D"/>
<path d="M33.8055 331.351C30.6075 331.351 28.1635 330.142 26.4735 327.724C24.8095 325.28 23.9775 321.783 23.9775 317.233C23.9775 314.139 24.3545 311.552 25.1085 309.472C25.8625 307.392 26.9675 305.819 28.4235 304.753C29.8795 303.687 31.6735 303.154 33.8055 303.154C37.0295 303.154 39.4735 304.35 41.1375 306.742C42.8015 309.108 43.6335 312.592 43.6335 317.194C43.6335 320.236 43.2565 322.81 42.5025 324.916C41.7485 327.022 40.6435 328.621 39.1875 329.713C37.7315 330.805 35.9375 331.351 33.8055 331.351ZM33.8055 327.997C35.8075 327.997 37.2765 327.126 38.2125 325.384C39.1745 323.616 39.6555 320.886 39.6555 317.194C39.6555 313.476 39.1745 310.772 38.2125 309.082C37.2765 307.366 35.8075 306.508 33.8055 306.508C31.8295 306.508 30.3605 307.366 29.3985 309.082C28.4365 310.772 27.9555 313.476 27.9555 317.194C27.9555 320.886 28.4365 323.616 29.3985 325.384C30.3605 327.126 31.8295 327.997 33.8055 327.997ZM57.1902 329.713C56.6962 329.713 56.3192 329.583 56.0592 329.323C55.8252 329.037 55.7082 328.66 55.7082 328.192V321.25H48.8832C48.4152 321.25 48.0512 321.133 47.7912 320.899C47.5312 320.639 47.4012 320.275 47.4012 319.807C47.4012 319.339 47.5312 318.988 47.7912 318.754C48.0512 318.494 48.4152 318.364 48.8832 318.364H55.7082V311.617C55.7082 311.149 55.8252 310.785 56.0592 310.525C56.3192 310.265 56.7092 310.135 57.2292 310.135C57.6972 310.135 58.0482 310.265 58.2822 310.525C58.5422 310.785 58.6722 311.149 58.6722 311.617V318.364H65.4972C65.9912 318.364 66.3552 318.494 66.5892 318.754C66.8492 318.988 66.9792 319.339 66.9792 319.807C66.9792 320.275 66.8492 320.639 66.5892 320.899C66.3552 321.133 65.9912 321.25 65.4972 321.25H58.6722V328.192C58.6722 328.66 58.5422 329.037 58.2822 329.323C58.0482 329.583 57.6842 329.713 57.1902 329.713Z" fill="#2D2D2D"/>
<path d="M25.1475 419.273C24.6275 419.273 24.2115 419.156 23.8995 418.922C23.5875 418.688 23.4055 418.376 23.3535 417.986C23.3015 417.596 23.3795 417.154 23.5875 416.66L34.1565 392.948C34.4165 392.324 34.7415 391.882 35.1315 391.622C35.5475 391.362 36.0025 391.232 36.4965 391.232C36.9645 391.232 37.3935 391.362 37.7835 391.622C38.1995 391.882 38.5375 392.324 38.7975 392.948L49.3665 416.66C49.6005 417.154 49.6915 417.609 49.6395 418.025C49.5875 418.415 49.4185 418.727 49.1325 418.961C48.8465 419.169 48.4435 419.273 47.9235 419.273C47.3515 419.273 46.8965 419.13 46.5585 418.844C46.2205 418.558 45.9215 418.116 45.6615 417.518L42.9315 411.2L44.7645 412.292H28.1505L29.9445 411.2L27.2535 417.518C26.9935 418.142 26.7075 418.597 26.3955 418.883C26.0835 419.143 25.6675 419.273 25.1475 419.273ZM36.4185 395.99L30.5295 409.952L29.5545 409.016H43.3215L42.4245 409.952L36.4965 395.99H36.4185ZM54.1936 410.186C53.7256 410.186 53.3356 410.03 53.0236 409.718C52.7116 409.406 52.5556 409.029 52.5556 408.587C52.5556 408.119 52.7116 407.742 53.0236 407.456C53.3356 407.144 53.7256 406.988 54.1936 406.988H62.7736C63.2156 406.988 63.5926 407.144 63.9046 407.456C64.2166 407.742 64.3726 408.119 64.3726 408.587C64.3726 409.029 64.2166 409.406 63.9046 409.718C63.5926 410.03 63.2156 410.186 62.7736 410.186H54.1936Z" fill="#2D2D2D"/>
<path d="M25.1475 507.273C24.6275 507.273 24.2115 507.156 23.8995 506.922C23.5875 506.688 23.4055 506.376 23.3535 505.986C23.3015 505.596 23.3795 505.154 23.5875 504.66L34.1565 480.948C34.4165 480.324 34.7415 479.882 35.1315 479.622C35.5475 479.362 36.0025 479.232 36.4965 479.232C36.9645 479.232 37.3935 479.362 37.7835 479.622C38.1995 479.882 38.5375 480.324 38.7975 480.948L49.3665 504.66C49.6005 505.154 49.6915 505.609 49.6395 506.025C49.5875 506.415 49.4185 506.727 49.1325 506.961C48.8465 507.169 48.4435 507.273 47.9235 507.273C47.3515 507.273 46.8965 507.13 46.5585 506.844C46.2205 506.558 45.9215 506.116 45.6615 505.518L42.9315 499.2L44.7645 500.292H28.1505L29.9445 499.2L27.2535 505.518C26.9935 506.142 26.7075 506.597 26.3955 506.883C26.0835 507.143 25.6675 507.273 25.1475 507.273ZM36.4185 483.99L30.5295 497.952L29.5545 497.016H43.3215L42.4245 497.952L36.4965 483.99H36.4185ZM62.5223 505.713C62.0283 505.713 61.6513 505.583 61.3913 505.323C61.1573 505.037 61.0403 504.66 61.0403 504.192V497.25H54.2153C53.7473 497.25 53.3833 497.133 53.1233 496.899C52.8633 496.639 52.7333 496.275 52.7333 495.807C52.7333 495.339 52.8633 494.988 53.1233 494.754C53.3833 494.494 53.7473 494.364 54.2153 494.364H61.0403V487.617C61.0403 487.149 61.1573 486.785 61.3913 486.525C61.6513 486.265 62.0413 486.135 62.5613 486.135C63.0293 486.135 63.3803 486.265 63.6143 486.525C63.8743 486.785 64.0043 487.149 64.0043 487.617V494.364H70.8293C71.3233 494.364 71.6873 494.494 71.9213 494.754C72.1813 494.988 72.3113 495.339 72.3113 495.807C72.3113 496.275 72.1813 496.639 71.9213 496.899C71.6873 497.133 71.3233 497.25 70.8293 497.25H64.0043V504.192C64.0043 504.66 63.8743 505.037 63.6143 505.323C63.3803 505.583 63.0163 505.713 62.5223 505.713Z" fill="#2D2D2D"/>
<path d="M27.4875 595C26.7855 595 26.2395 594.818 25.8495 594.454C25.4855 594.064 25.3035 593.518 25.3035 592.816V569.689C25.3035 568.987 25.4855 568.454 25.8495 568.09C26.2395 567.7 26.7855 567.505 27.4875 567.505H36.7695C38.6675 567.505 40.2795 567.791 41.6055 568.363C42.9575 568.935 43.9845 569.754 44.6865 570.82C45.4145 571.886 45.7785 573.173 45.7785 574.681C45.7785 576.345 45.2845 577.749 44.2965 578.893C43.3085 580.037 41.9695 580.804 40.2795 581.194V580.609C42.2035 580.869 43.7115 581.597 44.8035 582.793C45.8955 583.963 46.4415 585.497 46.4415 587.395C46.4415 589.839 45.6355 591.724 44.0235 593.05C42.4115 594.35 40.1495 595 37.2375 595H27.4875ZM29.2035 591.88H36.7695C38.7195 591.88 40.1625 591.503 41.0985 590.749C42.0345 589.969 42.5025 588.799 42.5025 587.239C42.5025 585.679 42.0345 584.522 41.0985 583.768C40.1625 583.014 38.7195 582.637 36.7695 582.637H29.2035V591.88ZM29.2035 579.517H36.1455C38.0175 579.517 39.4345 579.14 40.3965 578.386C41.3585 577.632 41.8395 576.527 41.8395 575.071C41.8395 573.615 41.3585 572.51 40.3965 571.756C39.4345 571.002 38.0175 570.625 36.1455 570.625H29.2035V579.517ZM52.8225 586.186C52.3545 586.186 51.9645 586.03 51.6525 585.718C51.3405 585.406 51.1845 585.029 51.1845 584.587C51.1845 584.119 51.3405 583.742 51.6525 583.456C51.9645 583.144 52.3545 582.988 52.8225 582.988H61.4025C61.8445 582.988 62.2215 583.144 62.5335 583.456C62.8455 583.742 63.0015 584.119 63.0015 584.587C63.0015 585.029 62.8455 585.406 62.5335 585.718C62.2215 586.03 61.8445 586.186 61.4025 586.186H52.8225Z" fill="#2D2D2D"/>
<path d="M27.4875 683C26.7855 683 26.2395 682.818 25.8495 682.454C25.4855 682.064 25.3035 681.518 25.3035 680.816V657.689C25.3035 656.987 25.4855 656.454 25.8495 656.09C26.2395 655.7 26.7855 655.505 27.4875 655.505H36.7695C38.6675 655.505 40.2795 655.791 41.6055 656.363C42.9575 656.935 43.9845 657.754 44.6865 658.82C45.4145 659.886 45.7785 661.173 45.7785 662.681C45.7785 664.345 45.2845 665.749 44.2965 666.893C43.3085 668.037 41.9695 668.804 40.2795 669.194V668.609C42.2035 668.869 43.7115 669.597 44.8035 670.793C45.8955 671.963 46.4415 673.497 46.4415 675.395C46.4415 677.839 45.6355 679.724 44.0235 681.05C42.4115 682.35 40.1495 683 37.2375 683H27.4875ZM29.2035 679.88H36.7695C38.7195 679.88 40.1625 679.503 41.0985 678.749C42.0345 677.969 42.5025 676.799 42.5025 675.239C42.5025 673.679 42.0345 672.522 41.0985 671.768C40.1625 671.014 38.7195 670.637 36.7695 670.637H29.2035V679.88ZM29.2035 667.517H36.1455C38.0175 667.517 39.4345 667.14 40.3965 666.386C41.3585 665.632 41.8395 664.527 41.8395 663.071C41.8395 661.615 41.3585 660.51 40.3965 659.756C39.4345 659.002 38.0175 658.625 36.1455 658.625H29.2035V667.517ZM60.3895 681.713C59.8955 681.713 59.5185 681.583 59.2585 681.323C59.0245 681.037 58.9075 680.66 58.9075 680.192V673.25H52.0825C51.6145 673.25 51.2505 673.133 50.9905 672.899C50.7305 672.639 50.6005 672.275 50.6005 671.807C50.6005 671.339 50.7305 670.988 50.9905 670.754C51.2505 670.494 51.6145 670.364 52.0825 670.364H58.9075V663.617C58.9075 663.149 59.0245 662.785 59.2585 662.525C59.5185 662.265 59.9085 662.135 60.4285 662.135C60.8965 662.135 61.2475 662.265 61.4815 662.525C61.7415 662.785 61.8715 663.149 61.8715 663.617V670.364H68.6965C69.1905 670.364 69.5545 670.494 69.7885 670.754C70.0485 670.988 70.1785 671.339 70.1785 671.807C70.1785 672.275 70.0485 672.639 69.7885 672.899C69.5545 673.133 69.1905 673.25 68.6965 673.25H61.8715V680.192C61.8715 680.66 61.7415 681.037 61.4815 681.323C61.2475 681.583 60.8835 681.713 60.3895 681.713Z" fill="#2D2D2D"/>
<path d="M25.1475 772.273C24.6275 772.273 24.2115 772.156 23.8995 771.922C23.5875 771.688 23.4055 771.376 23.3535 770.986C23.3015 770.596 23.3795 770.154 23.5875 769.66L34.1565 745.948C34.4165 745.324 34.7415 744.882 35.1315 744.622C35.5475 744.362 36.0025 744.232 36.4965 744.232C36.9645 744.232 37.3935 744.362 37.7835 744.622C38.1995 744.882 38.5375 745.324 38.7975 745.948L49.3665 769.66C49.6005 770.154 49.6915 770.609 49.6395 771.025C49.5875 771.415 49.4185 771.727 49.1325 771.961C48.8465 772.169 48.4435 772.273 47.9235 772.273C47.3515 772.273 46.8965 772.13 46.5585 771.844C46.2205 771.558 45.9215 771.116 45.6615 770.518L42.9315 764.2L44.7645 765.292H28.1505L29.9445 764.2L27.2535 770.518C26.9935 771.142 26.7075 771.597 26.3955 771.883C26.0835 772.143 25.6675 772.273 25.1475 772.273ZM36.4185 748.99L30.5295 762.952L29.5545 762.016H43.3215L42.4245 762.952L36.4965 748.99H36.4185ZM56.2043 772C55.5023 772 54.9563 771.818 54.5663 771.454C54.2023 771.064 54.0203 770.518 54.0203 769.816V746.689C54.0203 745.987 54.2023 745.454 54.5663 745.09C54.9563 744.7 55.5023 744.505 56.2043 744.505H65.4863C67.3843 744.505 68.9963 744.791 70.3223 745.363C71.6743 745.935 72.7013 746.754 73.4033 747.82C74.1313 748.886 74.4953 750.173 74.4953 751.681C74.4953 753.345 74.0013 754.749 73.0133 755.893C72.0253 757.037 70.6863 757.804 68.9963 758.194V757.609C70.9203 757.869 72.4283 758.597 73.5203 759.793C74.6123 760.963 75.1583 762.497 75.1583 764.395C75.1583 766.839 74.3523 768.724 72.7403 770.05C71.1283 771.35 68.8663 772 65.9543 772H56.2043ZM57.9203 768.88H65.4863C67.4363 768.88 68.8793 768.503 69.8153 767.749C70.7513 766.969 71.2193 765.799 71.2193 764.239C71.2193 762.679 70.7513 761.522 69.8153 760.768C68.8793 760.014 67.4363 759.637 65.4863 759.637H57.9203V768.88ZM57.9203 756.517H64.8623C66.7343 756.517 68.1513 756.14 69.1133 755.386C70.0753 754.632 70.5563 753.527 70.5563 752.071C70.5563 750.615 70.0753 749.51 69.1133 748.756C68.1513 748.002 66.7343 747.625 64.8623 747.625H57.9203V756.517ZM81.5393 763.186C81.0713 763.186 80.6813 763.03 80.3693 762.718C80.0573 762.406 79.9013 762.029 79.9013 761.587C79.9013 761.119 80.0573 760.742 80.3693 760.456C80.6813 760.144 81.0713 759.988 81.5393 759.988H90.1193C90.5613 759.988 90.9383 760.144 91.2503 760.456C91.5623 760.742 91.7183 761.119 91.7183 761.587C91.7183 762.029 91.5623 762.406 91.2503 762.718C90.9383 763.03 90.5613 763.186 90.1193 763.186H81.5393Z" fill="#2D2D2D"/>
<path d="M25.1475 859.273C24.6275 859.273 24.2115 859.156 23.8995 858.922C23.5875 858.688 23.4055 858.376 23.3535 857.986C23.3015 857.596 23.3795 857.154 23.5875 856.66L34.1565 832.948C34.4165 832.324 34.7415 831.882 35.1315 831.622C35.5475 831.362 36.0025 831.232 36.4965 831.232C36.9645 831.232 37.3935 831.362 37.7835 831.622C38.1995 831.882 38.5375 832.324 38.7975 832.948L49.3665 856.66C49.6005 857.154 49.6915 857.609 49.6395 858.025C49.5875 858.415 49.4185 858.727 49.1325 858.961C48.8465 859.169 48.4435 859.273 47.9235 859.273C47.3515 859.273 46.8965 859.13 46.5585 858.844C46.2205 858.558 45.9215 858.116 45.6615 857.518L42.9315 851.2L44.7645 852.292H28.1505L29.9445 851.2L27.2535 857.518C26.9935 858.142 26.7075 858.597 26.3955 858.883C26.0835 859.143 25.6675 859.273 25.1475 859.273ZM36.4185 835.99L30.5295 849.952L29.5545 849.016H43.3215L42.4245 849.952L36.4965 835.99H36.4185ZM56.2043 859C55.5023 859 54.9563 858.818 54.5663 858.454C54.2023 858.064 54.0203 857.518 54.0203 856.816V833.689C54.0203 832.987 54.2023 832.454 54.5663 832.09C54.9563 831.7 55.5023 831.505 56.2043 831.505H65.4863C67.3843 831.505 68.9963 831.791 70.3223 832.363C71.6743 832.935 72.7013 833.754 73.4033 834.82C74.1313 835.886 74.4953 837.173 74.4953 838.681C74.4953 840.345 74.0013 841.749 73.0133 842.893C72.0253 844.037 70.6863 844.804 68.9963 845.194V844.609C70.9203 844.869 72.4283 845.597 73.5203 846.793C74.6123 847.963 75.1583 849.497 75.1583 851.395C75.1583 853.839 74.3523 855.724 72.7403 857.05C71.1283 858.35 68.8663 859 65.9543 859H56.2043ZM57.9203 855.88H65.4863C67.4363 855.88 68.8793 855.503 69.8153 854.749C70.7513 853.969 71.2193 852.799 71.2193 851.239C71.2193 849.679 70.7513 848.522 69.8153 847.768C68.8793 847.014 67.4363 846.637 65.4863 846.637H57.9203V855.88ZM57.9203 843.517H64.8623C66.7343 843.517 68.1513 843.14 69.1133 842.386C70.0753 841.632 70.5563 840.527 70.5563 839.071C70.5563 837.615 70.0753 836.51 69.1133 835.756C68.1513 835.002 66.7343 834.625 64.8623 834.625H57.9203V843.517ZM89.1063 857.713C88.6123 857.713 88.2353 857.583 87.9753 857.323C87.7413 857.037 87.6243 856.66 87.6243 856.192V849.25H80.7993C80.3313 849.25 79.9673 849.133 79.7073 848.899C79.4473 848.639 79.3173 848.275 79.3173 847.807C79.3173 847.339 79.4473 846.988 79.7073 846.754C79.9673 846.494 80.3313 846.364 80.7993 846.364H87.6243V839.617C87.6243 839.149 87.7413 838.785 87.9753 838.525C88.2353 838.265 88.6253 838.135 89.1453 838.135C89.6133 838.135 89.9643 838.265 90.1983 838.525C90.4583 838.785 90.5883 839.149 90.5883 839.617V846.364H97.4133C97.9073 846.364 98.2713 846.494 98.5053 846.754C98.7653 846.988 98.8952 847.339 98.8952 847.807C98.8952 848.275 98.7653 848.639 98.5053 848.899C98.2713 849.133 97.9073 849.25 97.4133 849.25H90.5883V856.192C90.5883 856.66 90.4583 857.037 90.1983 857.323C89.9643 857.583 89.6003 857.713 89.1063 857.713Z" fill="#2D2D2D"/>
<rect x="0.5" y="4.5" width="1679" height="88" stroke="#0C8284"/>
<rect x="0.5" y="355.5" width="1679" height="88" stroke="#0C8284"/>
<rect x="0.5" y="92.5" width="1679" height="88" stroke="#0C8284"/>
<rect x="0.5" y="443.5" width="1679" height="88" stroke="#0C8284"/>
<rect x="0.5" y="180.5" width="1679" height="87" stroke="#0C8284"/>
<rect x="0.5" y="531.5" width="1679" height="88" stroke="#0C8284"/>
<rect x="0.5" y="268.5" width="1679" height="87" stroke="#0C8284"/>
<rect x="0.5" y="619.5" width="1679" height="88" stroke="#0C8284"/>
<rect x="0.5" y="707.5" width="1679" height="88" stroke="#0C8284"/>
<rect x="0.5" y="795.5" width="1679" height="88" stroke="#0C8284"/>
<path d="M26.7585 59.264C26.0765 59.264 25.5485 59.077 25.1745 58.703C24.8225 58.307 24.6465 57.768 24.6465 57.086V37.88C24.6465 37.176 24.8335 36.648 25.2075 36.296C25.5815 35.922 26.1095 35.735 26.7915 35.735H34.7445C37.2965 35.735 39.2655 36.351 40.6515 37.583C42.0375 38.793 42.7305 40.498 42.7305 42.698C42.7305 44.128 42.4115 45.36 41.7735 46.394C41.1575 47.428 40.2555 48.22 39.0675 48.77C37.8795 49.32 36.4385 49.595 34.7445 49.595L35.0415 49.1H36.1305C37.0325 49.1 37.8135 49.32 38.4735 49.76C39.1555 50.2 39.7495 50.893 40.2555 51.839L42.7305 56.426C42.9945 56.888 43.1155 57.339 43.0935 57.779C43.0715 58.219 42.9065 58.582 42.5985 58.868C42.2905 59.132 41.8395 59.264 41.2455 59.264C40.6515 59.264 40.1675 59.143 39.7935 58.901C39.4195 58.637 39.0895 58.241 38.8035 57.713L35.4705 51.575C35.0745 50.827 34.6015 50.332 34.0515 50.09C33.5235 49.826 32.8415 49.694 32.0055 49.694H28.8705V57.086C28.8705 57.768 28.6945 58.307 28.3425 58.703C27.9905 59.077 27.4625 59.264 26.7585 59.264ZM28.8705 46.559H34.0185C35.5365 46.559 36.6805 46.251 37.4505 45.635C38.2425 44.997 38.6385 44.051 38.6385 42.797C38.6385 41.565 38.2425 40.641 37.4505 40.025C36.6805 39.387 35.5365 39.068 34.0185 39.068H28.8705V46.559ZM54.4076 59.33C52.5816 59.33 51.0086 58.989 49.6886 58.307C48.3686 57.625 47.3456 56.657 46.6196 55.403C45.9156 54.149 45.5636 52.664 45.5636 50.948C45.5636 49.276 45.9046 47.813 46.5866 46.559C47.2906 45.305 48.2476 44.326 49.4576 43.622C50.6896 42.896 52.0866 42.533 53.6486 42.533C54.7926 42.533 55.8156 42.72 56.7176 43.094C57.6416 43.468 58.4226 44.007 59.0606 44.711C59.7206 45.415 60.2156 46.273 60.5456 47.285C60.8976 48.275 61.0736 49.397 61.0736 50.651C61.0736 51.047 60.9306 51.355 60.6446 51.575C60.3806 51.773 59.9956 51.872 59.4896 51.872H48.8966V49.496H58.1696L57.6416 49.991C57.6416 48.979 57.4876 48.132 57.1796 47.45C56.8936 46.768 56.4646 46.251 55.8926 45.899C55.3426 45.525 54.6496 45.338 53.8136 45.338C52.8896 45.338 52.0976 45.558 51.4376 45.998C50.7996 46.416 50.3046 47.021 49.9526 47.813C49.6226 48.583 49.4576 49.507 49.4576 50.585V50.816C49.4576 52.62 49.8756 53.973 50.7116 54.875C51.5696 55.755 52.8236 56.195 54.4736 56.195C55.0456 56.195 55.6836 56.129 56.3876 55.997C57.1136 55.843 57.7956 55.59 58.4336 55.238C58.8956 54.974 59.3026 54.864 59.6546 54.908C60.0066 54.93 60.2816 55.051 60.4796 55.271C60.6996 55.491 60.8316 55.766 60.8756 56.096C60.9196 56.404 60.8536 56.723 60.6776 57.053C60.5236 57.383 60.2486 57.669 59.8526 57.911C59.0826 58.395 58.1916 58.758 57.1796 59C56.1896 59.22 55.2656 59.33 54.4076 59.33ZM71.7983 59.33C70.1043 59.33 68.6303 58.989 67.3763 58.307C66.1223 57.603 65.1543 56.613 64.4723 55.337C63.7903 54.061 63.4493 52.565 63.4493 50.849C63.4493 49.551 63.6363 48.396 64.0103 47.384C64.4063 46.35 64.9673 45.481 65.6933 44.777C66.4193 44.051 67.2993 43.501 68.3333 43.127C69.3673 42.731 70.5223 42.533 71.7983 42.533C72.5243 42.533 73.3053 42.632 74.1413 42.83C74.9993 43.028 75.8023 43.358 76.5503 43.82C76.9023 44.04 77.1333 44.304 77.2433 44.612C77.3533 44.92 77.3753 45.239 77.3093 45.569C77.2433 45.877 77.1003 46.152 76.8803 46.394C76.6823 46.614 76.4293 46.757 76.1213 46.823C75.8133 46.867 75.4723 46.79 75.0983 46.592C74.6143 46.306 74.1193 46.097 73.6133 45.965C73.1073 45.811 72.6233 45.734 72.1613 45.734C71.4353 45.734 70.7973 45.855 70.2473 46.097C69.6973 46.317 69.2243 46.647 68.8283 47.087C68.4543 47.505 68.1683 48.033 67.9703 48.671C67.7723 49.309 67.6733 50.046 67.6733 50.882C67.6733 52.51 68.0583 53.797 68.8283 54.743C69.6203 55.667 70.7313 56.129 72.1613 56.129C72.6233 56.129 73.0963 56.063 73.5803 55.931C74.0863 55.799 74.5923 55.59 75.0983 55.304C75.4723 55.106 75.8023 55.04 76.0883 55.106C76.3963 55.172 76.6493 55.326 76.8473 55.568C77.0453 55.788 77.1663 56.063 77.2103 56.393C77.2543 56.701 77.2103 57.009 77.0783 57.317C76.9683 57.625 76.7483 57.878 76.4183 58.076C75.6923 58.516 74.9223 58.835 74.1083 59.033C73.2943 59.231 72.5243 59.33 71.7983 59.33ZM87.5365 59.33C85.7105 59.33 84.1375 58.989 82.8175 58.307C81.4975 57.625 80.4745 56.657 79.7485 55.403C79.0445 54.149 78.6925 52.664 78.6925 50.948C78.6925 49.276 79.0335 47.813 79.7155 46.559C80.4195 45.305 81.3765 44.326 82.5865 43.622C83.8185 42.896 85.2155 42.533 86.7775 42.533C87.9215 42.533 88.9445 42.72 89.8465 43.094C90.7705 43.468 91.5515 44.007 92.1895 44.711C92.8495 45.415 93.3445 46.273 93.6745 47.285C94.0265 48.275 94.2025 49.397 94.2025 50.651C94.2025 51.047 94.0595 51.355 93.7735 51.575C93.5095 51.773 93.1245 51.872 92.6185 51.872H82.0255V49.496H91.2985L90.7705 49.991C90.7705 48.979 90.6165 48.132 90.3085 47.45C90.0225 46.768 89.5935 46.251 89.0215 45.899C88.4715 45.525 87.7785 45.338 86.9425 45.338C86.0185 45.338 85.2265 45.558 84.5665 45.998C83.9285 46.416 83.4335 47.021 83.0815 47.813C82.7515 48.583 82.5865 49.507 82.5865 50.585V50.816C82.5865 52.62 83.0045 53.973 83.8405 54.875C84.6985 55.755 85.9525 56.195 87.6025 56.195C88.1745 56.195 88.8125 56.129 89.5165 55.997C90.2425 55.843 90.9245 55.59 91.5625 55.238C92.0245 54.974 92.4315 54.864 92.7835 54.908C93.1355 54.93 93.4105 55.051 93.6085 55.271C93.8285 55.491 93.9605 55.766 94.0045 56.096C94.0485 56.404 93.9825 56.723 93.8065 57.053C93.6525 57.383 93.3775 57.669 92.9815 57.911C92.2115 58.395 91.3205 58.758 90.3085 59C89.3185 59.22 88.3945 59.33 87.5365 59.33ZM99.5152 65.204C98.8552 65.204 98.3492 65.028 97.9972 64.676C97.6452 64.324 97.4692 63.807 97.4692 63.125V44.678C97.4692 43.996 97.6452 43.479 97.9972 43.127C98.3492 42.775 98.8442 42.599 99.4822 42.599C100.142 42.599 100.648 42.775 101 43.127C101.352 43.479 101.528 43.996 101.528 44.678V47.252L101.165 46.262C101.495 45.14 102.166 44.238 103.178 43.556C104.212 42.874 105.411 42.533 106.775 42.533C108.183 42.533 109.415 42.874 110.471 43.556C111.549 44.238 112.385 45.206 112.979 46.46C113.573 47.692 113.87 49.177 113.87 50.915C113.87 52.631 113.573 54.127 112.979 55.403C112.385 56.657 111.56 57.625 110.504 58.307C109.448 58.989 108.205 59.33 106.775 59.33C105.433 59.33 104.256 59 103.244 58.34C102.232 57.658 101.55 56.778 101.198 55.7H101.594V63.125C101.594 63.807 101.407 64.324 101.033 64.676C100.681 65.028 100.175 65.204 99.5152 65.204ZM105.62 56.195C106.434 56.195 107.149 55.997 107.765 55.601C108.381 55.205 108.854 54.622 109.184 53.852C109.536 53.06 109.712 52.081 109.712 50.915C109.712 49.155 109.338 47.846 108.59 46.988C107.842 46.108 106.852 45.668 105.62 45.668C104.806 45.668 104.091 45.866 103.475 46.262C102.859 46.636 102.375 47.219 102.023 48.011C101.693 48.781 101.528 49.749 101.528 50.915C101.528 52.653 101.902 53.973 102.65 54.875C103.398 55.755 104.388 56.195 105.62 56.195ZM124.487 59.33C123.057 59.33 121.858 59.088 120.89 58.604C119.944 58.12 119.24 57.416 118.778 56.492C118.316 55.546 118.085 54.38 118.085 52.994V45.965H116.369C115.841 45.965 115.434 45.833 115.148 45.569C114.862 45.283 114.719 44.898 114.719 44.414C114.719 43.908 114.862 43.523 115.148 43.259C115.434 42.995 115.841 42.863 116.369 42.863H118.085V39.86C118.085 39.178 118.261 38.661 118.613 38.309C118.987 37.957 119.504 37.781 120.164 37.781C120.824 37.781 121.33 37.957 121.682 38.309C122.034 38.661 122.21 39.178 122.21 39.86V42.863H125.708C126.236 42.863 126.643 42.995 126.929 43.259C127.215 43.523 127.358 43.908 127.358 44.414C127.358 44.898 127.215 45.283 126.929 45.569C126.643 45.833 126.236 45.965 125.708 45.965H122.21V52.763C122.21 53.819 122.441 54.611 122.903 55.139C123.365 55.667 124.113 55.931 125.147 55.931C125.521 55.931 125.851 55.898 126.137 55.832C126.423 55.766 126.676 55.722 126.896 55.7C127.16 55.678 127.38 55.766 127.556 55.964C127.732 56.14 127.82 56.514 127.82 57.086C127.82 57.526 127.743 57.922 127.589 58.274C127.457 58.604 127.204 58.835 126.83 58.967C126.544 59.055 126.17 59.132 125.708 59.198C125.246 59.286 124.839 59.33 124.487 59.33ZM136.958 59.33C135.286 59.33 133.834 58.989 132.602 58.307C131.37 57.625 130.413 56.657 129.731 55.403C129.049 54.127 128.708 52.631 128.708 50.915C128.708 49.617 128.895 48.462 129.269 47.45C129.665 46.416 130.226 45.536 130.952 44.81C131.678 44.062 132.547 43.501 133.559 43.127C134.571 42.731 135.704 42.533 136.958 42.533C138.63 42.533 140.082 42.874 141.314 43.556C142.546 44.238 143.503 45.206 144.185 46.46C144.867 47.714 145.208 49.199 145.208 50.915C145.208 52.213 145.01 53.379 144.614 54.413C144.24 55.447 143.69 56.338 142.964 57.086C142.238 57.812 141.369 58.373 140.357 58.769C139.345 59.143 138.212 59.33 136.958 59.33ZM136.958 56.195C137.772 56.195 138.487 55.997 139.103 55.601C139.719 55.205 140.192 54.622 140.522 53.852C140.874 53.06 141.05 52.081 141.05 50.915C141.05 49.155 140.676 47.846 139.928 46.988C139.18 46.108 138.19 45.668 136.958 45.668C136.144 45.668 135.429 45.866 134.813 46.262C134.197 46.636 133.713 47.219 133.361 48.011C133.031 48.781 132.866 49.749 132.866 50.915C132.866 52.653 133.24 53.973 133.988 54.875C134.736 55.755 135.726 56.195 136.958 56.195ZM150.725 59.264C150.043 59.264 149.515 59.088 149.141 58.736C148.789 58.362 148.613 57.834 148.613 57.152V44.678C148.613 43.996 148.789 43.479 149.141 43.127C149.493 42.775 149.988 42.599 150.626 42.599C151.264 42.599 151.759 42.775 152.111 43.127C152.463 43.479 152.639 43.996 152.639 44.678V46.757H152.309C152.617 45.437 153.222 44.436 154.124 43.754C155.026 43.072 156.225 42.665 157.721 42.533C158.183 42.489 158.546 42.61 158.81 42.896C159.096 43.16 159.261 43.578 159.305 44.15C159.349 44.7 159.217 45.151 158.909 45.503C158.623 45.833 158.183 46.031 157.589 46.097L156.863 46.163C155.521 46.295 154.509 46.713 153.827 47.417C153.145 48.099 152.804 49.067 152.804 50.321V57.152C152.804 57.834 152.628 58.362 152.276 58.736C151.924 59.088 151.407 59.264 150.725 59.264Z" fill="#27A3A5"/>
<path d="M26.8245 147.264C26.1425 147.264 25.6035 147.077 25.2075 146.703C24.8335 146.307 24.6465 145.746 24.6465 145.02V125.979C24.6465 125.253 24.8335 124.703 25.2075 124.329C25.6035 123.933 26.1645 123.735 26.8905 123.735H38.4075C38.9795 123.735 39.4085 123.878 39.6945 124.164C39.9805 124.45 40.1235 124.857 40.1235 125.385C40.1235 125.935 39.9805 126.364 39.6945 126.672C39.4085 126.958 38.9795 127.101 38.4075 127.101H28.8705V133.668H37.7145C38.2645 133.668 38.6825 133.811 38.9685 134.097C39.2765 134.383 39.4305 134.79 39.4305 135.318C39.4305 135.868 39.2765 136.297 38.9685 136.605C38.6825 136.891 38.2645 137.034 37.7145 137.034H28.8705V145.02C28.8705 146.516 28.1885 147.264 26.8245 147.264ZM47.4492 147.33C46.2832 147.33 45.2382 147.11 44.3142 146.67C43.4122 146.208 42.6972 145.592 42.1692 144.822C41.6632 144.052 41.4102 143.183 41.4102 142.215C41.4102 141.027 41.7182 140.092 42.3342 139.41C42.9502 138.706 43.9512 138.2 45.3372 137.892C46.7232 137.584 48.5822 137.43 50.9142 137.43H52.5642V139.806H50.9472C49.5832 139.806 48.4942 139.872 47.6802 140.004C46.8662 140.136 46.2832 140.367 45.9312 140.697C45.6012 141.005 45.4362 141.445 45.4362 142.017C45.4362 142.743 45.6892 143.337 46.1952 143.799C46.7012 144.261 47.4052 144.492 48.3072 144.492C49.0332 144.492 49.6712 144.327 50.2212 143.997C50.7932 143.645 51.2442 143.172 51.5742 142.578C51.9042 141.984 52.0692 141.302 52.0692 140.532V136.737C52.0692 135.637 51.8272 134.845 51.3432 134.361C50.8592 133.877 50.0452 133.635 48.9012 133.635C48.2632 133.635 47.5702 133.712 46.8222 133.866C46.0962 134.02 45.3262 134.284 44.5122 134.658C44.0942 134.856 43.7202 134.911 43.3902 134.823C43.0822 134.735 42.8402 134.559 42.6642 134.295C42.4882 134.009 42.4002 133.701 42.4002 133.371C42.4002 133.041 42.4882 132.722 42.6642 132.414C42.8402 132.084 43.1372 131.842 43.5552 131.688C44.5672 131.27 45.5352 130.973 46.4592 130.797C47.4052 130.621 48.2632 130.533 49.0332 130.533C50.6172 130.533 51.9152 130.775 52.9272 131.259C53.9612 131.743 54.7312 132.48 55.2372 133.47C55.7432 134.438 55.9962 135.692 55.9962 137.232V145.152C55.9962 145.834 55.8312 146.362 55.5012 146.736C55.1712 147.088 54.6982 147.264 54.0822 147.264C53.4662 147.264 52.9822 147.088 52.6302 146.736C52.3002 146.362 52.1352 145.834 52.1352 145.152V143.568H52.3992C52.2452 144.338 51.9372 145.009 51.4752 145.581C51.0352 146.131 50.4742 146.56 49.7922 146.868C49.1102 147.176 48.3292 147.33 47.4492 147.33ZM67.6411 147.33C65.9471 147.33 64.4731 146.989 63.2191 146.307C61.9651 145.603 60.9971 144.613 60.3151 143.337C59.6331 142.061 59.2921 140.565 59.2921 138.849C59.2921 137.551 59.4791 136.396 59.8531 135.384C60.2491 134.35 60.8101 133.481 61.5361 132.777C62.2621 132.051 63.1421 131.501 64.1761 131.127C65.2101 130.731 66.3651 130.533 67.6411 130.533C68.3671 130.533 69.1481 130.632 69.9841 130.83C70.8421 131.028 71.6451 131.358 72.3931 131.82C72.7451 132.04 72.9761 132.304 73.0861 132.612C73.1961 132.92 73.2181 133.239 73.1521 133.569C73.0861 133.877 72.9431 134.152 72.7231 134.394C72.5251 134.614 72.2721 134.757 71.9641 134.823C71.6561 134.867 71.3151 134.79 70.9411 134.592C70.4571 134.306 69.9621 134.097 69.4561 133.965C68.9501 133.811 68.4661 133.734 68.0041 133.734C67.2781 133.734 66.6401 133.855 66.0901 134.097C65.5401 134.317 65.0671 134.647 64.6711 135.087C64.2971 135.505 64.0111 136.033 63.8131 136.671C63.6151 137.309 63.5161 138.046 63.5161 138.882C63.5161 140.51 63.9011 141.797 64.6711 142.743C65.4631 143.667 66.5741 144.129 68.0041 144.129C68.4661 144.129 68.9391 144.063 69.4231 143.931C69.9291 143.799 70.4351 143.59 70.9411 143.304C71.3151 143.106 71.6451 143.04 71.9311 143.106C72.2391 143.172 72.4921 143.326 72.6901 143.568C72.8881 143.788 73.0091 144.063 73.0531 144.393C73.0971 144.701 73.0531 145.009 72.9211 145.317C72.8111 145.625 72.5911 145.878 72.2611 146.076C71.5351 146.516 70.7651 146.835 69.9511 147.033C69.1371 147.231 68.3671 147.33 67.6411 147.33ZM83.205 147.33C81.775 147.33 80.576 147.088 79.608 146.604C78.662 146.12 77.958 145.416 77.496 144.492C77.034 143.546 76.803 142.38 76.803 140.994V133.965H75.087C74.559 133.965 74.152 133.833 73.866 133.569C73.58 133.283 73.437 132.898 73.437 132.414C73.437 131.908 73.58 131.523 73.866 131.259C74.152 130.995 74.559 130.863 75.087 130.863H76.803V127.86C76.803 127.178 76.979 126.661 77.331 126.309C77.705 125.957 78.222 125.781 78.882 125.781C79.542 125.781 80.048 125.957 80.4 126.309C80.752 126.661 80.928 127.178 80.928 127.86V130.863H84.426C84.954 130.863 85.361 130.995 85.647 131.259C85.933 131.523 86.076 131.908 86.076 132.414C86.076 132.898 85.933 133.283 85.647 133.569C85.361 133.833 84.954 133.965 84.426 133.965H80.928V140.763C80.928 141.819 81.159 142.611 81.621 143.139C82.083 143.667 82.831 143.931 83.865 143.931C84.239 143.931 84.569 143.898 84.855 143.832C85.141 143.766 85.394 143.722 85.614 143.7C85.878 143.678 86.098 143.766 86.274 143.964C86.45 144.14 86.538 144.514 86.538 145.086C86.538 145.526 86.461 145.922 86.307 146.274C86.175 146.604 85.922 146.835 85.548 146.967C85.262 147.055 84.888 147.132 84.426 147.198C83.964 147.286 83.557 147.33 83.205 147.33ZM95.6759 147.33C94.0039 147.33 92.5519 146.989 91.3199 146.307C90.0879 145.625 89.1309 144.657 88.4489 143.403C87.7669 142.127 87.4259 140.631 87.4259 138.915C87.4259 137.617 87.6129 136.462 87.9869 135.45C88.3829 134.416 88.9439 133.536 89.6699 132.81C90.3959 132.062 91.2649 131.501 92.2769 131.127C93.2889 130.731 94.4219 130.533 95.6759 130.533C97.3479 130.533 98.7999 130.874 100.032 131.556C101.264 132.238 102.221 133.206 102.903 134.46C103.585 135.714 103.926 137.199 103.926 138.915C103.926 140.213 103.728 141.379 103.332 142.413C102.958 143.447 102.408 144.338 101.682 145.086C100.956 145.812 100.087 146.373 99.0749 146.769C98.0629 147.143 96.9299 147.33 95.6759 147.33ZM95.6759 144.195C96.4899 144.195 97.2049 143.997 97.8209 143.601C98.4369 143.205 98.9099 142.622 99.2399 141.852C99.5919 141.06 99.7679 140.081 99.7679 138.915C99.7679 137.155 99.3939 135.846 98.6459 134.988C97.8979 134.108 96.9079 133.668 95.6759 133.668C94.8619 133.668 94.1469 133.866 93.5309 134.262C92.9149 134.636 92.4309 135.219 92.0789 136.011C91.7489 136.781 91.5839 137.749 91.5839 138.915C91.5839 140.653 91.9579 141.973 92.7059 142.875C93.4539 143.755 94.4439 144.195 95.6759 144.195ZM109.443 147.264C108.761 147.264 108.233 147.088 107.859 146.736C107.507 146.362 107.331 145.834 107.331 145.152V132.678C107.331 131.996 107.507 131.479 107.859 131.127C108.211 130.775 108.706 130.599 109.344 130.599C109.982 130.599 110.477 130.775 110.829 131.127C111.181 131.479 111.357 131.996 111.357 132.678V134.757H111.027C111.335 133.437 111.94 132.436 112.842 131.754C113.744 131.072 114.943 130.665 116.439 130.533C116.901 130.489 117.264 130.61 117.528 130.896C117.814 131.16 117.979 131.578 118.023 132.15C118.067 132.7 117.935 133.151 117.627 133.503C117.341 133.833 116.901 134.031 116.307 134.097L115.581 134.163C114.239 134.295 113.227 134.713 112.545 135.417C111.863 136.099 111.522 137.067 111.522 138.321V145.152C111.522 145.834 111.346 146.362 110.994 146.736C110.642 147.088 110.125 147.264 109.443 147.264Z" fill="#27A3A5"/>
<path d="M440.785 59C440.059 59 439.498 58.813 439.102 58.439C438.728 58.043 438.541 57.482 438.541 56.756V37.979C438.541 37.253 438.728 36.703 439.102 36.329C439.498 35.933 440.059 35.735 440.785 35.735H447.187C451.081 35.735 454.084 36.736 456.196 38.738C458.33 40.74 459.397 43.611 459.397 47.351C459.397 49.221 459.122 50.882 458.572 52.334C458.044 53.764 457.252 54.974 456.196 55.964C455.162 56.954 453.886 57.713 452.368 58.241C450.872 58.747 449.145 59 447.187 59H440.785ZM442.765 55.502H446.923C448.287 55.502 449.464 55.337 450.454 55.007C451.466 54.655 452.302 54.149 452.962 53.489C453.644 52.807 454.15 51.96 454.48 50.948C454.81 49.914 454.975 48.715 454.975 47.351C454.975 44.623 454.304 42.588 452.962 41.246C451.62 39.904 449.607 39.233 446.923 39.233H442.765V55.502ZM470.641 59.33C468.969 59.33 467.517 58.989 466.285 58.307C465.053 57.625 464.096 56.657 463.414 55.403C462.732 54.127 462.391 52.631 462.391 50.915C462.391 49.617 462.578 48.462 462.952 47.45C463.348 46.416 463.909 45.536 464.635 44.81C465.361 44.062 466.23 43.501 467.242 43.127C468.254 42.731 469.387 42.533 470.641 42.533C472.313 42.533 473.765 42.874 474.997 43.556C476.229 44.238 477.186 45.206 477.868 46.46C478.55 47.714 478.891 49.199 478.891 50.915C478.891 52.213 478.693 53.379 478.297 54.413C477.923 55.447 477.373 56.338 476.647 57.086C475.921 57.812 475.052 58.373 474.04 58.769C473.028 59.143 471.895 59.33 470.641 59.33ZM470.641 56.195C471.455 56.195 472.17 55.997 472.786 55.601C473.402 55.205 473.875 54.622 474.205 53.852C474.557 53.06 474.733 52.081 474.733 50.915C474.733 49.155 474.359 47.846 473.611 46.988C472.863 46.108 471.873 45.668 470.641 45.668C469.827 45.668 469.112 45.866 468.496 46.262C467.88 46.636 467.396 47.219 467.044 48.011C466.714 48.781 466.549 49.749 466.549 50.915C466.549 52.653 466.923 53.973 467.671 54.875C468.419 55.755 469.409 56.195 470.641 56.195ZM484.341 59.264C483.681 59.264 483.175 59.088 482.823 58.736C482.471 58.362 482.295 57.834 482.295 57.152V44.678C482.295 43.996 482.471 43.479 482.823 43.127C483.175 42.775 483.67 42.599 484.308 42.599C484.946 42.599 485.441 42.775 485.793 43.127C486.145 43.479 486.321 43.996 486.321 44.678V46.922L485.958 46.097C486.442 44.931 487.19 44.051 488.202 43.457C489.236 42.841 490.402 42.533 491.7 42.533C492.998 42.533 494.065 42.775 494.901 43.259C495.737 43.743 496.364 44.48 496.782 45.47C497.2 46.438 497.409 47.67 497.409 49.166V57.152C497.409 57.834 497.233 58.362 496.881 58.736C496.529 59.088 496.023 59.264 495.363 59.264C494.703 59.264 494.186 59.088 493.812 58.736C493.46 58.362 493.284 57.834 493.284 57.152V49.364C493.284 48.11 493.042 47.197 492.558 46.625C492.096 46.053 491.37 45.767 490.38 45.767C489.17 45.767 488.202 46.152 487.476 46.922C486.772 47.67 486.42 48.671 486.42 49.925V57.152C486.42 58.56 485.727 59.264 484.341 59.264ZM506.912 59.33C505.746 59.33 504.701 59.11 503.777 58.67C502.875 58.208 502.16 57.592 501.632 56.822C501.126 56.052 500.873 55.183 500.873 54.215C500.873 53.027 501.181 52.092 501.797 51.41C502.413 50.706 503.414 50.2 504.8 49.892C506.186 49.584 508.045 49.43 510.377 49.43H512.027V51.806H510.41C509.046 51.806 507.957 51.872 507.143 52.004C506.329 52.136 505.746 52.367 505.394 52.697C505.064 53.005 504.899 53.445 504.899 54.017C504.899 54.743 505.152 55.337 505.658 55.799C506.164 56.261 506.868 56.492 507.77 56.492C508.496 56.492 509.134 56.327 509.684 55.997C510.256 55.645 510.707 55.172 511.037 54.578C511.367 53.984 511.532 53.302 511.532 52.532V48.737C511.532 47.637 511.29 46.845 510.806 46.361C510.322 45.877 509.508 45.635 508.364 45.635C507.726 45.635 507.033 45.712 506.285 45.866C505.559 46.02 504.789 46.284 503.975 46.658C503.557 46.856 503.183 46.911 502.853 46.823C502.545 46.735 502.303 46.559 502.127 46.295C501.951 46.009 501.863 45.701 501.863 45.371C501.863 45.041 501.951 44.722 502.127 44.414C502.303 44.084 502.6 43.842 503.018 43.688C504.03 43.27 504.998 42.973 505.922 42.797C506.868 42.621 507.726 42.533 508.496 42.533C510.08 42.533 511.378 42.775 512.39 43.259C513.424 43.743 514.194 44.48 514.7 45.47C515.206 46.438 515.459 47.692 515.459 49.232V57.152C515.459 57.834 515.294 58.362 514.964 58.736C514.634 59.088 514.161 59.264 513.545 59.264C512.929 59.264 512.445 59.088 512.093 58.736C511.763 58.362 511.598 57.834 511.598 57.152V55.568H511.862C511.708 56.338 511.4 57.009 510.938 57.581C510.498 58.131 509.937 58.56 509.255 58.868C508.573 59.176 507.792 59.33 506.912 59.33ZM521.692 59.264C521.032 59.264 520.526 59.088 520.174 58.736C519.822 58.362 519.646 57.834 519.646 57.152V44.678C519.646 43.996 519.822 43.479 520.174 43.127C520.526 42.775 521.021 42.599 521.659 42.599C522.297 42.599 522.792 42.775 523.144 43.127C523.496 43.479 523.672 43.996 523.672 44.678V46.922L523.309 46.097C523.793 44.931 524.541 44.051 525.553 43.457C526.587 42.841 527.753 42.533 529.051 42.533C530.349 42.533 531.416 42.775 532.252 43.259C533.088 43.743 533.715 44.48 534.133 45.47C534.551 46.438 534.76 47.67 534.76 49.166V57.152C534.76 57.834 534.584 58.362 534.232 58.736C533.88 59.088 533.374 59.264 532.714 59.264C532.054 59.264 531.537 59.088 531.163 58.736C530.811 58.362 530.635 57.834 530.635 57.152V49.364C530.635 48.11 530.393 47.197 529.909 46.625C529.447 46.053 528.721 45.767 527.731 45.767C526.521 45.767 525.553 46.152 524.827 46.922C524.123 47.67 523.771 48.671 523.771 49.925V57.152C523.771 58.56 523.078 59.264 521.692 59.264ZM546.342 59.33C544.912 59.33 543.713 59.088 542.745 58.604C541.799 58.12 541.095 57.416 540.633 56.492C540.171 55.546 539.94 54.38 539.94 52.994V45.965H538.224C537.696 45.965 537.289 45.833 537.003 45.569C536.717 45.283 536.574 44.898 536.574 44.414C536.574 43.908 536.717 43.523 537.003 43.259C537.289 42.995 537.696 42.863 538.224 42.863H539.94V39.86C539.94 39.178 540.116 38.661 540.468 38.309C540.842 37.957 541.359 37.781 542.019 37.781C542.679 37.781 543.185 37.957 543.537 38.309C543.889 38.661 544.065 39.178 544.065 39.86V42.863H547.563C548.091 42.863 548.498 42.995 548.784 43.259C549.07 43.523 549.213 43.908 549.213 44.414C549.213 44.898 549.07 45.283 548.784 45.569C548.498 45.833 548.091 45.965 547.563 45.965H544.065V52.763C544.065 53.819 544.296 54.611 544.758 55.139C545.22 55.667 545.968 55.931 547.002 55.931C547.376 55.931 547.706 55.898 547.992 55.832C548.278 55.766 548.531 55.722 548.751 55.7C549.015 55.678 549.235 55.766 549.411 55.964C549.587 56.14 549.675 56.514 549.675 57.086C549.675 57.526 549.598 57.922 549.444 58.274C549.312 58.604 549.059 58.835 548.685 58.967C548.399 59.055 548.025 59.132 547.563 59.198C547.101 59.286 546.694 59.33 546.342 59.33ZM559.407 59.33C557.581 59.33 556.008 58.989 554.688 58.307C553.368 57.625 552.345 56.657 551.619 55.403C550.915 54.149 550.563 52.664 550.563 50.948C550.563 49.276 550.904 47.813 551.586 46.559C552.29 45.305 553.247 44.326 554.457 43.622C555.689 42.896 557.086 42.533 558.648 42.533C559.792 42.533 560.815 42.72 561.717 43.094C562.641 43.468 563.422 44.007 564.06 44.711C564.72 45.415 565.215 46.273 565.545 47.285C565.897 48.275 566.073 49.397 566.073 50.651C566.073 51.047 565.93 51.355 565.644 51.575C565.38 51.773 564.995 51.872 564.489 51.872H553.896V49.496H563.169L562.641 49.991C562.641 48.979 562.487 48.132 562.179 47.45C561.893 46.768 561.464 46.251 560.892 45.899C560.342 45.525 559.649 45.338 558.813 45.338C557.889 45.338 557.097 45.558 556.437 45.998C555.799 46.416 555.304 47.021 554.952 47.813C554.622 48.583 554.457 49.507 554.457 50.585V50.816C554.457 52.62 554.875 53.973 555.711 54.875C556.569 55.755 557.823 56.195 559.473 56.195C560.045 56.195 560.683 56.129 561.387 55.997C562.113 55.843 562.795 55.59 563.433 55.238C563.895 54.974 564.302 54.864 564.654 54.908C565.006 54.93 565.281 55.051 565.479 55.271C565.699 55.491 565.831 55.766 565.875 56.096C565.919 56.404 565.853 56.723 565.677 57.053C565.523 57.383 565.248 57.669 564.852 57.911C564.082 58.395 563.191 58.758 562.179 59C561.189 59.22 560.265 59.33 559.407 59.33Z" fill="#27A3A5"/>
<path d="M434.063 224.716L417.5 240.501L400.938 224.716M400.938 224.716C399.845 223.693 398.985 222.464 398.411 221.105C397.836 219.746 397.56 218.288 397.601 216.822C397.641 215.355 397.996 213.913 398.644 212.585C399.292 211.258 400.218 210.073 401.365 209.107C402.512 208.141 403.854 207.414 405.308 206.971C406.761 206.529 408.294 206.381 409.81 206.537C411.325 206.692 412.791 207.148 414.115 207.875C415.438 208.603 416.591 209.586 417.5 210.764C418.414 209.595 419.568 208.62 420.89 207.9C422.213 207.181 423.676 206.731 425.187 206.581C426.699 206.43 428.226 206.581 429.674 207.024C431.122 207.468 432.46 208.194 433.603 209.158C434.745 210.121 435.669 211.302 436.316 212.625C436.963 213.948 437.32 215.385 437.363 216.847C437.406 218.308 437.135 219.763 436.567 221.119C436 222.476 435.147 223.704 434.063 224.729" stroke="#EB1D36" stroke-width="4" stroke-linecap="round" stroke-linejoin="round"/>
<path d="M434.063 312.716L417.5 328.501L400.938 312.716M400.938 312.716C399.845 311.693 398.985 310.464 398.411 309.105C397.836 307.746 397.56 306.288 397.601 304.822C397.641 303.355 397.996 301.913 398.644 300.585C399.292 299.258 400.218 298.073 401.365 297.107C402.512 296.141 403.854 295.414 405.308 294.971C406.761 294.529 408.294 294.381 409.81 294.537C411.325 294.692 412.791 295.148 414.115 295.875C415.438 296.603 416.591 297.586 417.5 298.764C418.414 297.595 419.568 296.62 420.89 295.9C422.213 295.181 423.676 294.731 425.187 294.581C426.699 294.43 428.226 294.581 429.674 295.024C431.122 295.468 432.46 296.194 433.603 297.158C434.745 298.121 435.669 299.302 436.316 300.625C436.963 301.948 437.32 303.385 437.363 304.847C437.406 306.308 437.135 307.763 436.567 309.119C436 310.476 435.147 311.704 434.063 312.729" stroke="#EB1D36" stroke-width="4" stroke-linecap="round" stroke-linejoin="round"/>
<path d="M434.063 401.716L417.5 417.501L400.938 401.716M400.938 401.716C399.845 400.693 398.985 399.464 398.411 398.105C397.836 396.746 397.56 395.288 397.601 393.822C397.641 392.355 397.996 390.913 398.644 389.585C399.292 388.258 400.218 387.073 401.365 386.107C402.512 385.141 403.854 384.414 405.308 383.971C406.761 383.529 408.294 383.381 409.81 383.537C411.325 383.692 412.791 384.148 414.115 384.875C415.438 385.603 416.591 386.586 417.5 387.764C418.414 386.595 419.568 385.62 420.89 384.9C422.213 384.181 423.676 383.731 425.187 383.581C426.699 383.43 428.226 383.581 429.674 384.024C431.122 384.468 432.46 385.194 433.603 386.158C434.745 387.121 435.669 388.302 436.316 389.625C436.963 390.948 437.32 392.385 437.363 393.847C437.406 395.308 437.135 396.763 436.567 398.119C436 399.476 435.147 400.704 434.063 401.729" stroke="#EB1D36" stroke-width="4" stroke-linecap="round" stroke-linejoin="round"/>
<path d="M434.063 489.716L417.5 505.501L400.938 489.716M400.938 489.716C399.845 488.693 398.985 487.464 398.411 486.105C397.836 484.746 397.56 483.288 397.601 481.822C397.641 480.355 397.996 478.913 398.644 477.585C399.292 476.258 400.218 475.073 401.365 474.107C402.512 473.141 403.854 472.414 405.308 471.971C406.761 471.529 408.294 471.381 409.81 471.537C411.325 471.692 412.791 472.148 414.115 472.875C415.438 473.603 416.591 474.586 417.5 475.764C418.414 474.595 419.568 473.62 420.89 472.9C422.213 472.181 423.676 471.731 425.187 471.581C426.699 471.43 428.226 471.581 429.674 472.024C431.122 472.468 432.46 473.194 433.603 474.158C434.745 475.121 435.669 476.302 436.316 477.625C436.963 478.948 437.32 480.385 437.363 481.847C437.406 483.308 437.135 484.763 436.567 486.119C436 487.476 435.147 488.704 434.063 489.729" stroke="#EB1D36" stroke-width="4" stroke-linecap="round" stroke-linejoin="round"/>
<path d="M434.063 577.716L417.5 593.501L400.938 577.716M400.938 577.716C399.845 576.693 398.985 575.464 398.411 574.105C397.836 572.746 397.56 571.288 397.601 569.822C397.641 568.355 397.996 566.913 398.644 565.585C399.292 564.258 400.218 563.073 401.365 562.107C402.512 561.141 403.854 560.414 405.308 559.971C406.761 559.529 408.294 559.381 409.81 559.537C411.325 559.692 412.791 560.148 414.115 560.875C415.438 561.603 416.591 562.586 417.5 563.764C418.414 562.595 419.568 561.62 420.89 560.9C422.213 560.181 423.676 559.731 425.187 559.581C426.699 559.43 428.226 559.581 429.674 560.024C431.122 560.468 432.46 561.194 433.603 562.158C434.745 563.121 435.669 564.302 436.316 565.625C436.963 566.948 437.32 568.385 437.363 569.847C437.406 571.308 437.135 572.763 436.567 574.119C436 575.476 435.147 576.704 434.063 577.729" stroke="#EB1D36" stroke-width="4" stroke-linecap="round" stroke-linejoin="round"/>
<path d="M1111.69 577.716L1094.5 593.501L1077.31 577.716M1077.31 577.716C1076.18 576.693 1075.29 575.464 1074.69 574.105C1074.09 572.746 1073.81 571.288 1073.85 569.822C1073.89 568.355 1074.26 566.913 1074.93 565.585C1075.6 564.258 1076.57 563.073 1077.76 562.107C1078.95 561.141 1080.34 560.414 1081.85 559.971C1083.36 559.529 1084.95 559.381 1086.52 559.537C1088.09 559.692 1089.61 560.148 1090.99 560.875C1092.36 561.603 1093.56 562.586 1094.5 563.764C1095.45 562.595 1096.65 561.62 1098.02 560.9C1099.39 560.181 1100.91 559.731 1102.48 559.581C1104.05 559.43 1105.63 559.581 1107.13 560.024C1108.64 560.468 1110.02 561.194 1111.21 562.158C1112.4 563.121 1113.35 564.302 1114.03 565.625C1114.7 566.948 1115.07 568.385 1115.11 569.847C1115.16 571.308 1114.88 572.763 1114.29 574.119C1113.7 575.476 1112.81 576.704 1111.69 577.729" stroke="#EB1D36" stroke-width="4" stroke-linecap="round" stroke-linejoin="round"/>
<path d="M434.063 665.716L417.5 681.501L400.938 665.716M400.938 665.716C399.845 664.693 398.985 663.464 398.411 662.105C397.836 660.746 397.56 659.288 397.601 657.822C397.641 656.355 397.996 654.913 398.644 653.585C399.292 652.258 400.218 651.073 401.365 650.107C402.512 649.141 403.854 648.414 405.308 647.971C406.761 647.529 408.294 647.381 409.81 647.537C411.325 647.692 412.791 648.148 414.115 648.875C415.438 649.603 416.591 650.586 417.5 651.764C418.414 650.595 419.568 649.62 420.89 648.9C422.213 648.181 423.676 647.731 425.187 647.581C426.699 647.43 428.226 647.581 429.674 648.024C431.122 648.468 432.46 649.194 433.603 650.158C434.745 651.121 435.669 652.302 436.316 653.625C436.963 654.948 437.32 656.385 437.363 657.847C437.406 659.308 437.135 660.763 436.567 662.119C436 663.476 435.147 664.704 434.063 665.729" stroke="#EB1D36" stroke-width="4" stroke-linecap="round" stroke-linejoin="round"/>
<path d="M434.063 753.716L417.5 769.501L400.938 753.716M400.938 753.716C399.845 752.693 398.985 751.464 398.411 750.105C397.836 748.746 397.56 747.288 397.601 745.822C397.641 744.355 397.996 742.913 398.644 741.585C399.292 740.258 400.218 739.073 401.365 738.107C402.512 737.141 403.854 736.414 405.308 735.971C406.761 735.529 408.294 735.381 409.81 735.537C411.325 735.692 412.791 736.148 414.115 736.875C415.438 737.603 416.591 738.586 417.5 739.764C418.414 738.595 419.568 737.62 420.89 736.9C422.213 736.181 423.676 735.731 425.187 735.581C426.699 735.43 428.226 735.581 429.674 736.024C431.122 736.468 432.46 737.194 433.603 738.158C434.745 739.121 435.669 740.302 436.316 741.625C436.963 742.948 437.32 744.385 437.363 745.847C437.406 747.308 437.135 748.763 436.567 750.119C436 751.476 435.147 752.704 434.063 753.729" stroke="#EB1D36" stroke-width="4" stroke-linecap="round" stroke-linejoin="round"/>
<path d="M434.063 840.716L417.5 856.501L400.938 840.716M400.938 840.716C399.845 839.693 398.985 838.464 398.411 837.105C397.836 835.746 397.56 834.288 397.601 832.822C397.641 831.355 397.996 829.913 398.644 828.585C399.292 827.258 400.218 826.073 401.365 825.107C402.512 824.141 403.854 823.414 405.308 822.971C406.761 822.529 408.294 822.381 409.81 822.537C411.325 822.692 412.791 823.148 414.115 823.875C415.438 824.603 416.591 825.586 417.5 826.764C418.414 825.595 419.568 824.62 420.89 823.9C422.213 823.181 423.676 822.731 425.187 822.581C426.699 822.43 428.226 822.581 429.674 823.024C431.122 823.468 432.46 824.194 433.603 825.158C434.745 826.121 435.669 827.302 436.316 828.625C436.963 829.948 437.32 831.385 437.363 832.847C437.406 834.308 437.135 835.763 436.567 837.119C436 838.476 435.147 839.704 434.063 840.729" stroke="#EB1D36" stroke-width="4" stroke-linecap="round" stroke-linejoin="round"/>
<path d="M608.875 665.716L592 681.501L575.125 665.716M575.125 665.716C574.012 664.693 573.135 663.464 572.55 662.105C571.965 660.746 571.684 659.288 571.725 657.822C571.765 656.355 572.127 654.913 572.788 653.585C573.448 652.258 574.392 651.073 575.56 650.107C576.729 649.141 578.097 648.414 579.577 647.971C581.058 647.529 582.62 647.381 584.164 647.537C585.708 647.692 587.202 648.148 588.55 648.875C589.899 649.603 591.074 650.586 592 651.764C592.93 650.595 594.106 649.62 595.454 648.9C596.802 648.181 598.292 647.731 599.832 647.581C601.372 647.43 602.928 647.581 604.404 648.024C605.879 648.468 607.242 649.194 608.406 650.158C609.57 651.121 610.512 652.302 611.171 653.625C611.83 654.948 612.193 656.385 612.237 657.847C612.281 659.308 612.005 660.763 611.427 662.119C610.848 663.476 609.979 664.704 608.875 665.729" stroke="#EB1D36" stroke-width="4" stroke-linecap="round" stroke-linejoin="round"/>
<path d="M1111.69 665.716L1094.5 681.501L1077.31 665.716M1077.31 665.716C1076.18 664.693 1075.29 663.464 1074.69 662.105C1074.09 660.746 1073.81 659.288 1073.85 657.822C1073.89 656.355 1074.26 654.913 1074.93 653.585C1075.6 652.258 1076.57 651.073 1077.76 650.107C1078.95 649.141 1080.34 648.414 1081.85 647.971C1083.36 647.529 1084.95 647.381 1086.52 647.537C1088.09 647.692 1089.61 648.148 1090.99 648.875C1092.36 649.603 1093.56 650.586 1094.5 651.764C1095.45 650.595 1096.65 649.62 1098.02 648.9C1099.39 648.181 1100.91 647.731 1102.48 647.581C1104.05 647.43 1105.63 647.581 1107.13 648.024C1108.64 648.468 1110.02 649.194 1111.21 650.158C1112.4 651.121 1113.35 652.302 1114.03 653.625C1114.7 654.948 1115.07 656.385 1115.11 657.847C1115.16 659.308 1114.88 660.763 1114.29 662.119C1113.7 663.476 1112.81 664.704 1111.69 665.729" stroke="#EB1D36" stroke-width="4" stroke-linecap="round" stroke-linejoin="round"/>
<path d="M1111.69 753.716L1094.5 769.501L1077.31 753.716M1077.31 753.716C1076.18 752.693 1075.29 751.464 1074.69 750.105C1074.09 748.746 1073.81 747.288 1073.85 745.822C1073.89 744.355 1074.26 742.913 1074.93 741.585C1075.6 740.258 1076.57 739.073 1077.76 738.107C1078.95 737.141 1080.34 736.414 1081.85 735.971C1083.36 735.529 1084.95 735.381 1086.52 735.537C1088.09 735.692 1089.61 736.148 1090.99 736.875C1092.36 737.603 1093.56 738.586 1094.5 739.764C1095.45 738.595 1096.65 737.62 1098.02 736.9C1099.39 736.181 1100.91 735.731 1102.48 735.581C1104.05 735.43 1105.63 735.581 1107.13 736.024C1108.64 736.468 1110.02 737.194 1111.21 738.158C1112.4 739.121 1113.35 740.302 1114.03 741.625C1114.7 742.948 1115.07 744.385 1115.11 745.847C1115.16 747.308 1114.88 748.763 1114.29 750.119C1113.7 751.476 1112.81 752.704 1111.69 753.729" stroke="#EB1D36" stroke-width="4" stroke-linecap="round" stroke-linejoin="round"/>
<path d="M1111.69 840.716L1094.5 856.501L1077.31 840.716M1077.31 840.716C1076.18 839.693 1075.29 838.464 1074.69 837.105C1074.09 835.746 1073.81 834.288 1073.85 832.822C1073.89 831.355 1074.26 829.913 1074.93 828.585C1075.6 827.258 1076.57 826.073 1077.76 825.107C1078.95 824.141 1080.34 823.414 1081.85 822.971C1083.36 822.529 1084.95 822.381 1086.52 822.537C1088.09 822.692 1089.61 823.148 1090.99 823.875C1092.36 824.603 1093.56 825.586 1094.5 826.764C1095.45 825.595 1096.65 824.62 1098.02 823.9C1099.39 823.181 1100.91 822.731 1102.48 822.581C1104.05 822.43 1105.63 822.581 1107.13 823.024C1108.64 823.468 1110.02 824.194 1111.21 825.158C1112.4 826.121 1113.35 827.302 1114.03 828.625C1114.7 829.948 1115.07 831.385 1115.11 832.847C1115.16 834.308 1114.88 835.763 1114.29 837.119C1113.7 838.476 1112.81 839.704 1111.69 840.729" stroke="#EB1D36" stroke-width="4" stroke-linecap="round" stroke-linejoin="round"/>
<path d="M1431.06 840.716L1414.5 856.501L1397.94 840.716M1397.94 840.716C1396.84 839.693 1395.98 838.464 1395.41 837.105C1394.84 835.746 1394.56 834.288 1394.6 832.822C1394.64 831.355 1395 829.913 1395.64 828.585C1396.29 827.258 1397.22 826.073 1398.36 825.107C1399.51 824.141 1400.85 823.414 1402.31 822.971C1403.76 822.529 1405.29 822.381 1406.81 822.537C1408.32 822.692 1409.79 823.148 1411.11 823.875C1412.44 824.603 1413.59 825.586 1414.5 826.764C1415.41 825.595 1416.57 824.62 1417.89 823.9C1419.21 823.181 1420.68 822.731 1422.19 822.581C1423.7 822.43 1425.23 822.581 1426.67 823.024C1428.12 823.468 1429.46 824.194 1430.6 825.158C1431.74 826.121 1432.67 827.302 1433.32 828.625C1433.96 829.948 1434.32 831.385 1434.36 832.847C1434.41 834.308 1434.13 835.763 1433.57 837.119C1433 838.476 1432.15 839.704 1431.06 840.729" stroke="#EB1D36" stroke-width="4" stroke-linecap="round" stroke-linejoin="round"/>
<path d="M1612.06 840.716L1595.5 856.501L1578.94 840.716M1578.94 840.716C1577.84 839.693 1576.98 838.464 1576.41 837.105C1575.84 835.746 1575.56 834.288 1575.6 832.822C1575.64 831.355 1576 829.913 1576.64 828.585C1577.29 827.258 1578.22 826.073 1579.36 825.107C1580.51 824.141 1581.85 823.414 1583.31 822.971C1584.76 822.529 1586.29 822.381 1587.81 822.537C1589.32 822.692 1590.79 823.148 1592.11 823.875C1593.44 824.603 1594.59 825.586 1595.5 826.764C1596.41 825.595 1597.57 824.62 1598.89 823.9C1600.21 823.181 1601.68 822.731 1603.19 822.581C1604.7 822.43 1606.23 822.581 1607.67 823.024C1609.12 823.468 1610.46 824.194 1611.6 825.158C1612.74 826.121 1613.67 827.302 1614.32 828.625C1614.96 829.948 1615.32 831.385 1615.36 832.847C1615.41 834.308 1615.13 835.763 1614.57 837.119C1614 838.476 1613.15 839.704 1612.06 840.729" stroke="#EB1D36" stroke-width="4" stroke-linecap="round" stroke-linejoin="round"/>
<path d="M1431.06 753.716L1414.5 769.501L1397.94 753.716M1397.94 753.716C1396.84 752.693 1395.98 751.464 1395.41 750.105C1394.84 748.746 1394.56 747.288 1394.6 745.822C1394.64 744.355 1395 742.913 1395.64 741.585C1396.29 740.258 1397.22 739.073 1398.36 738.107C1399.51 737.141 1400.85 736.414 1402.31 735.971C1403.76 735.529 1405.29 735.381 1406.81 735.537C1408.32 735.692 1409.79 736.148 1411.11 736.875C1412.44 737.603 1413.59 738.586 1414.5 739.764C1415.41 738.595 1416.57 737.62 1417.89 736.9C1419.21 736.181 1420.68 735.731 1422.19 735.581C1423.7 735.43 1425.23 735.581 1426.67 736.024C1428.12 736.468 1429.46 737.194 1430.6 738.158C1431.74 739.121 1432.67 740.302 1433.32 741.625C1433.96 742.948 1434.32 744.385 1434.36 745.847C1434.41 747.308 1434.13 748.763 1433.57 750.119C1433 751.476 1432.15 752.704 1431.06 753.729" stroke="#EB1D36" stroke-width="4" stroke-linecap="round" stroke-linejoin="round"/>
<path d="M1261.87 665.716L1245 681.501L1228.12 665.716M1228.12 665.716C1227.01 664.693 1226.14 663.464 1225.55 662.105C1224.96 660.746 1224.68 659.288 1224.72 657.822C1224.77 656.355 1225.13 654.913 1225.79 653.585C1226.45 652.258 1227.39 651.073 1228.56 650.107C1229.73 649.141 1231.1 648.414 1232.58 647.971C1234.06 647.529 1235.62 647.381 1237.16 647.537C1238.71 647.692 1240.2 648.148 1241.55 648.875C1242.9 649.603 1244.07 650.586 1245 651.764C1245.93 650.595 1247.11 649.62 1248.45 648.9C1249.8 648.181 1251.29 647.731 1252.83 647.581C1254.37 647.43 1255.93 647.581 1257.4 648.024C1258.88 648.468 1260.24 649.194 1261.41 650.158C1262.57 651.121 1263.51 652.302 1264.17 653.625C1264.83 654.948 1265.19 656.385 1265.24 657.847C1265.28 659.308 1265.01 660.763 1264.43 662.119C1263.85 663.476 1262.98 664.704 1261.87 665.729" stroke="#EB1D36" stroke-width="4" stroke-linecap="round" stroke-linejoin="round"/>
<path d="M608.875 840.716L592 856.501L575.125 840.716M575.125 840.716C574.012 839.693 573.135 838.464 572.55 837.105C571.965 835.746 571.684 834.288 571.725 832.822C571.765 831.355 572.127 829.913 572.788 828.585C573.448 827.258 574.392 826.073 575.56 825.107C576.729 824.141 578.097 823.414 579.577 822.971C581.058 822.529 582.62 822.381 584.164 822.537C585.708 822.692 587.202 823.148 588.55 823.875C589.899 824.603 591.074 825.586 592 826.764C592.93 825.595 594.106 824.62 595.454 823.9C596.802 823.181 598.292 822.731 599.832 822.581C601.372 822.43 602.928 822.581 604.404 823.024C605.879 823.468 607.242 824.194 608.406 825.158C609.57 826.121 610.512 827.302 611.171 828.625C611.83 829.948 612.193 831.385 612.237 832.847C612.281 834.308 612.005 835.763 611.427 837.119C610.848 838.476 609.979 839.704 608.875 840.729" stroke="#EB1D36" stroke-width="4" stroke-linecap="round" stroke-linejoin="round"/>
<path d="M770.875 753.716L754 769.501L737.125 753.716M737.125 753.716C736.012 752.693 735.135 751.464 734.55 750.105C733.965 748.746 733.684 747.288 733.725 745.822C733.765 744.355 734.127 742.913 734.788 741.585C735.448 740.258 736.392 739.073 737.56 738.107C738.729 737.141 740.097 736.414 741.577 735.971C743.058 735.529 744.62 735.381 746.164 735.537C747.708 735.692 749.202 736.148 750.55 736.875C751.899 737.603 753.074 738.586 754 739.764C754.93 738.595 756.106 737.62 757.454 736.9C758.802 736.181 760.292 735.731 761.832 735.581C763.372 735.43 764.928 735.581 766.404 736.024C767.879 736.468 769.242 737.194 770.406 738.158C771.57 739.121 772.512 740.302 773.171 741.625C773.83 742.948 774.193 744.385 774.237 745.847C774.281 747.308 774.005 748.763 773.427 750.119C772.848 751.476 771.979 752.704 770.875 753.729" stroke="#EB1D36" stroke-width="4" stroke-linecap="round" stroke-linejoin="round"/>
<path d="M770.875 840.716L754 856.501L737.125 840.716M737.125 840.716C736.012 839.693 735.135 838.464 734.55 837.105C733.965 835.746 733.684 834.288 733.725 832.822C733.765 831.355 734.127 829.913 734.788 828.585C735.448 827.258 736.392 826.073 737.56 825.107C738.729 824.141 740.097 823.414 741.577 822.971C743.058 822.529 744.62 822.381 746.164 822.537C747.708 822.692 749.202 823.148 750.55 823.875C751.899 824.603 753.074 825.586 754 826.764C754.93 825.595 756.106 824.62 757.454 823.9C758.802 823.181 760.292 822.731 761.832 822.581C763.372 822.43 764.928 822.581 766.404 823.024C767.879 823.468 769.242 824.194 770.406 825.158C771.57 826.121 772.512 827.302 773.171 828.625C773.83 829.948 774.193 831.385 774.237 832.847C774.281 834.308 774.005 835.763 773.427 837.119C772.848 838.476 771.979 839.704 770.875 840.729" stroke="#EB1D36" stroke-width="4" stroke-linecap="round" stroke-linejoin="round"/>
<path d="M934.875 840.716L918 856.501L901.125 840.716M901.125 840.716C900.012 839.693 899.135 838.464 898.55 837.105C897.965 835.746 897.684 834.288 897.725 832.822C897.765 831.355 898.127 829.913 898.788 828.585C899.448 827.258 900.392 826.073 901.56 825.107C902.729 824.141 904.097 823.414 905.577 822.971C907.058 822.529 908.62 822.381 910.164 822.537C911.708 822.692 913.202 823.148 914.55 823.875C915.899 824.603 917.074 825.586 918 826.764C918.93 825.595 920.106 824.62 921.454 823.9C922.802 823.181 924.292 822.731 925.832 822.581C927.372 822.43 928.928 822.581 930.404 823.024C931.879 823.468 933.242 824.194 934.406 825.158C935.57 826.121 936.512 827.302 937.171 828.625C937.83 829.948 938.193 831.385 938.237 832.847C938.281 834.308 938.005 835.763 937.427 837.119C936.848 838.476 935.979 839.704 934.875 840.729" stroke="#EB1D36" stroke-width="4" stroke-linecap="round" stroke-linejoin="round"/>
<path d="M1268.87 840.716L1252 856.501L1235.12 840.716M1235.12 840.716C1234.01 839.693 1233.14 838.464 1232.55 837.105C1231.96 835.746 1231.68 834.288 1231.72 832.822C1231.77 831.355 1232.13 829.913 1232.79 828.585C1233.45 827.258 1234.39 826.073 1235.56 825.107C1236.73 824.141 1238.1 823.414 1239.58 822.971C1241.06 822.529 1242.62 822.381 1244.16 822.537C1245.71 822.692 1247.2 823.148 1248.55 823.875C1249.9 824.603 1251.07 825.586 1252 826.764C1252.93 825.595 1254.11 824.62 1255.45 823.9C1256.8 823.181 1258.29 822.731 1259.83 822.581C1261.37 822.43 1262.93 822.581 1264.4 823.024C1265.88 823.468 1267.24 824.194 1268.41 825.158C1269.57 826.121 1270.51 827.302 1271.17 828.625C1271.83 829.948 1272.19 831.385 1272.24 832.847C1272.28 834.308 1272.01 835.763 1271.43 837.119C1270.85 838.476 1269.98 839.704 1268.87 840.729" stroke="#EB1D36" stroke-width="4" stroke-linecap="round" stroke-linejoin="round"/>
<path d="M602.688 489.716L585.5 505.501L568.312 489.716M568.312 489.716C567.179 488.693 566.286 487.464 565.69 486.105C565.094 484.746 564.808 483.288 564.849 481.822C564.891 480.355 565.259 478.913 565.932 477.585C566.604 476.258 567.566 475.073 568.756 474.107C569.946 473.141 571.339 472.414 572.847 471.971C574.355 471.529 575.946 471.381 577.519 471.537C579.092 471.692 580.613 472.148 581.987 472.875C583.36 473.603 584.556 474.586 585.5 475.764C586.448 474.595 587.645 473.62 589.018 472.9C590.391 472.181 591.909 471.731 593.477 471.581C595.046 471.43 596.631 471.581 598.133 472.024C599.636 472.468 601.024 473.194 602.21 474.158C603.396 475.121 604.355 476.302 605.026 477.625C605.697 478.948 606.067 480.385 606.112 481.847C606.157 483.308 605.876 484.763 605.287 486.119C604.697 487.476 603.812 488.704 602.688 489.729" stroke="#EB1D36" stroke-width="4" stroke-linecap="round" stroke-linejoin="round"/>
<path d="M602.688 312.716L585.5 328.501L568.312 312.716M568.312 312.716C567.179 311.693 566.286 310.464 565.69 309.105C565.094 307.746 564.808 306.288 564.849 304.822C564.891 303.355 565.259 301.913 565.932 300.585C566.604 299.258 567.566 298.073 568.756 297.107C569.946 296.141 571.339 295.414 572.847 294.971C574.355 294.529 575.946 294.381 577.519 294.537C579.092 294.692 580.613 295.148 581.987 295.875C583.36 296.603 584.556 297.586 585.5 298.764C586.448 297.595 587.645 296.62 589.018 295.9C590.391 295.181 591.909 294.731 593.477 294.581C595.046 294.43 596.631 294.581 598.133 295.024C599.636 295.468 601.024 296.194 602.21 297.158C603.396 298.121 604.355 299.302 605.026 300.625C605.697 301.948 606.067 303.385 606.112 304.847C606.157 306.308 605.876 307.763 605.287 309.119C604.697 310.476 603.812 311.704 602.688 312.729" stroke="#EB1D36" stroke-width="4" stroke-linecap="round" stroke-linejoin="round"/>
<path d="M770.875 401.716L754 417.501L737.125 401.716M737.125 401.716C736.012 400.693 735.135 399.464 734.55 398.105C733.965 396.746 733.684 395.288 733.725 393.822C733.765 392.355 734.127 390.913 734.788 389.585C735.448 388.258 736.392 387.073 737.56 386.107C738.729 385.141 740.097 384.414 741.577 383.971C743.058 383.529 744.62 383.381 746.164 383.537C747.708 383.692 749.202 384.148 750.55 384.875C751.899 385.603 753.074 386.586 754 387.764C754.93 386.595 756.106 385.62 757.454 384.9C758.802 384.181 760.292 383.731 761.832 383.581C763.372 383.43 764.928 383.581 766.404 384.024C767.879 384.468 769.242 385.194 770.406 386.158C771.57 387.121 772.512 388.302 773.171 389.625C773.83 390.948 774.193 392.385 774.237 393.847C774.281 395.308 774.005 396.763 773.427 398.119C772.848 399.476 771.979 400.704 770.875 401.729" stroke="#EB1D36" stroke-width="4" stroke-linecap="round" stroke-linejoin="round"/>
<path d="M770.875 489.716L754 505.501L737.125 489.716M737.125 489.716C736.012 488.693 735.135 487.464 734.55 486.105C733.965 484.746 733.684 483.288 733.725 481.822C733.765 480.355 734.127 478.913 734.788 477.585C735.448 476.258 736.392 475.073 737.56 474.107C738.729 473.141 740.097 472.414 741.577 471.971C743.058 471.529 744.62 471.381 746.164 471.537C747.708 471.692 749.202 472.148 750.55 472.875C751.899 473.603 753.074 474.586 754 475.764C754.93 474.595 756.106 473.62 757.454 472.9C758.802 472.181 760.292 471.731 761.832 471.581C763.372 471.43 764.928 471.581 766.404 472.024C767.879 472.468 769.242 473.194 770.406 474.158C771.57 475.121 772.512 476.302 773.171 477.625C773.83 478.948 774.193 480.385 774.237 481.847C774.281 483.308 774.005 484.763 773.427 486.119C772.848 487.476 771.979 488.704 770.875 489.729" stroke="#EB1D36" stroke-width="4" stroke-linecap="round" stroke-linejoin="round"/>
<path d="M935.688 489.716L918.5 505.501L901.312 489.716M901.312 489.716C900.179 488.693 899.286 487.464 898.69 486.105C898.094 484.746 897.808 483.288 897.849 481.822C897.891 480.355 898.259 478.913 898.932 477.585C899.604 476.258 900.566 475.073 901.756 474.107C902.946 473.141 904.339 472.414 905.847 471.971C907.355 471.529 908.946 471.381 910.519 471.537C912.092 471.692 913.613 472.148 914.987 472.875C916.36 473.603 917.556 474.586 918.5 475.764C919.448 474.595 920.645 473.62 922.018 472.9C923.391 472.181 924.909 471.731 926.477 471.581C928.046 471.43 929.631 471.581 931.133 472.024C932.636 472.468 934.024 473.194 935.21 474.158C936.396 475.121 937.355 476.302 938.026 477.625C938.697 478.948 939.067 480.385 939.112 481.847C939.157 483.308 938.876 484.763 938.287 486.119C937.697 487.476 936.812 488.704 935.688 489.729" stroke="#EB1D36" stroke-width="4" stroke-linecap="round" stroke-linejoin="round"/>
<line x1="327.5" y1="4" x2="327.5" y2="884" stroke="#0C8284"/>
<line x1="495.5" y1="92" x2="495.5" y2="884" stroke="#0C8284"/>
<line x1="665.5" y1="92" x2="665.5" y2="884" stroke="#0C8284"/>
<line x1="834.5" y1="92" x2="834.5" y2="884" stroke="#0C8284"/>
<line x1="1002.5" y1="92" x2="1002.5" y2="884" stroke="#0C8284"/>
<line x1="1173.5" y1="92" x2="1173.5" y2="884" stroke="#0C8284"/>
<line x1="1342.5" y1="92" x2="1342.5" y2="884" stroke="#0C8284"/>
<line x1="1511.5" y1="92" x2="1511.5" y2="884" stroke="#0C8284"/>
<line x1="1680.5" y1="92" x2="1680.5" y2="884" stroke="#0C8284"/>
</svg>
